<?xml version="1.0" encoding="utf-8"?>
<!-- Generator: Adobe Illustrator 27.5.0, SVG Export Plug-In . SVG Version: 6.00 Build 0)  -->
<svg version="1.1" id="Capa_1" xmlns="http://www.w3.org/2000/svg" xmlns:xlink="http://www.w3.org/1999/xlink" x="0px" y="0px"
	 viewBox="0 0 1945 2315" style="enable-background:new 0 0 1945 2315;" xml:space="preserve">
<path style="fill:#203A73;" d="M1563.832,667.438c-17.73-22.109-42.516-36.035-64.93-37.766c1.082,5.992,2.223,11.973,3.262,17.969
	c3.809,10.473,7.5,20.988,11.109,31.527c17.629,20.32,31.961,43.5,42.035,68.445c2.566,6.363,5.031,13.082,10.055,17.766
	c9.504,8.859,32.254,1.32,42.711-3.18c0.598-0.258,1.168-0.594,1.758-0.879C1600.602,726.371,1584.828,693.625,1563.832,667.438z"/>
<path style="fill:#1F2A50;" d="M1565.363,765.379c-5.023-4.684-7.488-11.402-10.055-17.766
	c-10.074-24.945-24.406-48.125-42.035-68.445c7.676,22.422,14.82,45.016,20.781,67.969c4.895,18.855,8.867,38.277,11.742,57.922
	c9.133,62.426,6.918,127.18-13.879,183.981c24.582-6.566,47.453-28.906,59.086-48.148c31.043-51.371,34.867-118.813,18.828-179.57
	c-0.59,0.285-1.16,0.621-1.758,0.879C1597.617,766.699,1574.867,774.238,1565.363,765.379z"/>
<path style="fill:#203A73;" d="M362.777,765.379c5.02-4.684,7.484-11.402,10.055-17.766c10.578-26.199,25.801-50.504,44.672-71.535
	c4.492-13.016,9.105-25.988,13.871-38.91c0.453-2.559,0.961-5.102,1.422-7.66c-23.313,0.434-49.816,14.641-68.488,37.93
	c-21,26.188-36.773,58.934-46,93.883c0.586,0.285,1.156,0.621,1.758,0.879C330.523,766.699,353.273,774.238,362.777,765.379z"/>
<path style="fill:#1F2A50;" d="M395.633,747.137c3.992-15.371,8.578-30.551,13.418-45.648c2.723-8.5,5.539-16.969,8.453-25.41
	c-18.871,21.031-34.094,45.336-44.672,71.535c-2.57,6.363-5.035,13.082-10.055,17.766c-9.504,8.859-32.254,1.32-42.711-3.18
	c-0.602-0.258-1.172-0.594-1.758-0.879c-16.043,60.758-12.223,128.199,18.828,179.57c11.906,19.691,35.57,42.629,60.801,48.586
	C370.414,914.711,375.137,826.074,395.633,747.137z"/>
<path style="fill:#203A73;" d="M1369.258,1852.453c-37.34,28.598-75.301,56.391-113.895,83.262
	c-17.832,12.422-36.414,25.316-47.027,44.273c-10.844,19.383-11.926,43.02-7.527,64.777c2.547,12.613,6.809,24.738,11.754,36.629
	c21.75,2.598,44.379-5.371,62.035-18.711c20.125-15.199,34.629-36.656,46.66-58.828
	C1344.156,1961.66,1362.66,1907.445,1369.258,1852.453z"/>
<path style="fill:#1F2A50;" d="M1200.809,2044.766c-4.398-21.758-3.316-45.395,7.527-64.777
	c10.613-18.957,29.195-31.852,47.027-44.273c38.594-26.871,76.555-54.664,113.895-83.262c2.461-20.531,3.227-41.164,1.977-61.32
	c-37.117,36.195-81.352,66.531-122.5,92.879c-39.133,25.055-81.625,46.27-126.016,61.613c2.867,13.676,6.051,26.902,9.422,39.441
	c10.754,40.035,31.285,84.016,71.363,94.605c2.992,0.793,6.02,1.359,9.059,1.723
	C1207.617,2069.504,1203.355,2057.379,1200.809,2044.766z"/>
<path style="fill:#203A73;" d="M753.023,1979.988c-10.609-18.957-29.195-31.852-47.027-44.273
	c-38.598-26.871-76.555-54.66-113.895-83.262c6.598,54.992,25.105,109.207,48,151.402c12.031,22.172,26.531,43.629,46.66,58.828
	c17.656,13.34,40.281,21.309,62.035,18.711c4.941-11.891,9.207-24.016,11.754-36.629
	C764.945,2023.008,763.867,1999.371,753.023,1979.988z"/>
<path style="fill:#1F2A50;" d="M589.598,1816.496c0.227,11.945,1.063,23.969,2.504,35.957
	c37.34,28.602,75.297,56.391,113.895,83.262c17.832,12.422,36.418,25.316,47.027,44.273c10.844,19.383,11.922,43.02,7.527,64.777
	c-2.547,12.613-6.813,24.738-11.754,36.629c3.043-0.363,6.066-0.93,9.059-1.723c40.082-10.59,60.609-54.57,71.367-94.605
	c2.938-10.941,5.734-22.406,8.305-34.23c-72.969-21.719-141.769-58.383-204.058-101.68
	C618.769,1838.945,603.969,1828.086,589.598,1816.496z"/>
<path style="fill:#EBF2E5;" d="M1614.012,1546.996c11.016,4.484,23.422,13.715,35.066,14.934
	c42.867,4.481,60.465-34.047,63.887-71.391c-0.273-1.246-0.531-2.488-0.855-3.719c-6.953-26.313-22.695-49.133-40.363-70.09
	c-0.516,5.051-1.16,10.098-2.004,15.117C1662.398,1475.301,1642.547,1514.98,1614.012,1546.996z"/>
<path style="fill:#EBF2E5;" d="M1468.055,1323.98c-0.016,0.645-0.016,1.297-0.039,1.945c-0.609,19.645-2.855,39.18-4.336,58.762
	c-1.18,15.57-5.273,37.219,0.281,52.199c1.867,5.027,4.316,10.016,7.215,14.883c8.586,14.43,26.527,20.5,42.094,14.219
	c10.547-4.258,20.582-9.73,29.945-16.195c22.949-38.344,34.23-83.082,31.918-128.063c-21.492-17.809-43.895-34.516-67.27-49.781
	c-12.797-8.355-26.305-17.129-40.355-25.504c3.438,8.043,5.891,16.5,7.027,25.324
	C1476.809,1289.426,1474.023,1307.148,1468.055,1323.98z"/>
<path style="fill:#EBF2E5;" d="M1578.531,1351.953c-3.516,45.43-20.664,88.887-49.188,124.41
	c-4.332,5.391-8.988,10.504-13.789,15.48c-1.254,1.391-2.41,2.859-3.711,4.199c3.574,2.777,7.133,5.359,10.629,7.711
	c11.758,7.906,24.234,14.551,37.074,20.535c9.094,4.242,19.574,4.355,28.742,0.262c19.613-8.75,38.465-19.305,57.094-30.09
	c12.594-25.469,20.402-53.223,22.996-81.727c-2.582-3-5.199-5.961-7.832-8.883c-25.309-28.145-52.59-54.562-81.598-78.914
	C1579.328,1333.934,1579.227,1342.949,1578.531,1351.953z"/>
<path style="fill:#C6CAD6;" d="M1649.078,1561.93c-11.645-1.219-24.051-10.449-35.066-14.934
	c-7.625,8.547-15.871,16.523-24.672,23.891c35.59,10.453,72.527,10.684,108.543-5.641c16.363-19.813,20.832-48.93,15.082-74.707
	C1709.543,1527.883,1691.945,1566.41,1649.078,1561.93z"/>
<path style="fill:#C6CAD6;" d="M1533.82,1546.414c16.73,9.777,34.109,17.805,51.844,23.371
	c25.301-20.738,45.496-46.57,59.719-75.324c-18.629,10.785-37.48,21.34-57.094,30.09c-9.168,4.094-19.648,3.98-28.742-0.262
	c-12.84-5.984-25.316-12.629-37.074-20.535c-3.496-2.352-7.055-4.934-10.629-7.711c1.301-1.34,2.457-2.809,3.711-4.199
	c-8.176,8.484-17.012,16.301-26.391,23.434C1502.828,1527.125,1518.254,1537.32,1533.82,1546.414z"/>
<path style="fill:#C6CAD6;" d="M1451.727,1467.02c7.945,17.813,20.242,32.867,34.758,45.93c0.91-0.691,1.879-1.289,2.777-1.992
	c21.977-17.133,40.082-37.984,53.953-61.164c-9.363,6.465-19.398,11.938-29.945,16.195c-15.566,6.281-33.508,0.211-42.094-14.219
	c-2.898-4.867-5.348-9.855-7.215-14.883c-5.555-14.98-1.461-36.629-0.281-52.199c1.48-19.582,3.727-39.117,4.336-58.762
	c0.023-0.648,0.023-1.301,0.039-1.945c-3.828,10.793-8.98,21.211-14.949,31.02c-1.398,2.309-2.836,4.59-4.316,6.82
	c-0.672,1.004-1.379,1.984-2.063,2.977c-1.672,7.48-3.09,15.016-4.09,22.629C1439.117,1414.238,1440.719,1442.313,1451.727,1467.02z
	"/>
<path style="fill:#A1A8C3;" d="M1486.484,1512.949c-14.516-13.063-26.813-28.117-34.758-45.93
	c-11.008-24.707-12.609-52.781-9.09-79.594c1-7.613,2.418-15.148,4.09-22.629c-9.426,13.664-20.488,26.281-32.91,37.309
	c5.344,16.887,10.457,33.816,15.27,50.797c0.324,1.133,0.648,2.262,0.969,3.387c2.727,9.699,5.375,19.41,7.926,29.133
	c3.73,14.227,7.23,28.59,10.234,43.023c0.527,0.332,1.035,0.699,1.566,1.027c1.797,1.129,3.621,2.219,5.434,3.324
	c1.68-0.867,3.344-1.754,4.992-2.672C1469.379,1525.066,1478.129,1519.262,1486.484,1512.949z"/>
<path style="fill:#A1A8C3;" d="M1585.664,1569.785c-17.734-5.567-35.113-13.594-51.844-23.371
	c-15.566-9.094-30.992-19.289-44.656-31.137c-2.441,1.855-4.832,3.777-7.348,5.535c-6.922,4.832-14.582,10.02-22.688,14.375
	c34.422,20.535,71.543,36.965,110.301,46.613c1.621-1.105,3.305-2.109,4.902-3.254
	C1578.223,1575.75,1581.98,1572.805,1585.664,1569.785z"/>
<path style="fill:#A1A8C3;" d="M1589.34,1570.887c-4.992,4.18-10.125,8.191-15.461,11.949c12.508,2.938,25.168,5.199,37.969,6.621
	c25.742,2.855,53.766,1.855,74.691-13.414c4.297-3.133,8.039-6.793,11.344-10.797
	C1661.867,1581.57,1624.93,1581.34,1589.34,1570.887z"/>
<path style="fill:#203A73;" d="M1543.215,1449.793c-13.871,23.18-31.977,44.031-53.953,61.164c-0.898,0.703-1.867,1.301-2.777,1.992
	c-8.355,6.313-17.105,12.117-26.277,17.176c-1.648,0.918-3.313,1.805-4.992,2.672c1.309,0.797,2.602,1.609,3.914,2.391
	c8.105-4.355,15.766-9.543,22.688-14.375c2.516-1.758,4.906-3.68,7.348-5.535c9.379-7.133,18.215-14.949,26.391-23.434
	c4.801-4.977,9.457-10.09,13.789-15.48c28.523-35.523,45.672-78.98,49.188-124.41c0.695-9.004,0.797-18.02,0.418-27.016
	c-1.27-1.07-2.535-2.145-3.816-3.207C1577.445,1366.711,1566.164,1411.449,1543.215,1449.793z"/>
<path style="fill:#203A73;" d="M1585.664,1569.785c-3.684,3.019-7.441,5.965-11.332,8.762c-1.598,1.145-3.281,2.148-4.902,3.254
	c1.477,0.367,2.965,0.684,4.449,1.035c5.336-3.758,10.469-7.77,15.461-11.949c8.801-7.367,17.047-15.344,24.672-23.891
	c28.535-32.016,48.387-71.695,55.73-115.148c0.844-5.02,1.488-10.067,2.004-15.117c-1.129-1.332-2.23-2.684-3.367-3.996
	c-2.594,28.504-10.402,56.258-22.996,81.727C1631.16,1523.215,1610.965,1549.047,1585.664,1569.785z"/>
<path style="fill:#203A73;" d="M1381.672,1236.656c3.066,23.52,17.426,43.805,31.344,63.008
	c13.363,18.445,26.723,36.895,40.09,55.336c5.969-9.809,11.121-20.227,14.949-31.02c5.969-16.832,8.754-34.555,6.48-52.211
	c-1.137-8.824-3.59-17.281-7.027-25.324c-12.941-30.281-40.637-54.27-71.859-66.629
	C1385.773,1196.887,1378.828,1214.867,1381.672,1236.656z"/>
<path style="fill:#1F2A50;" d="M1340.086,1207.004c22.996,52.453,43.758,105.445,61.914,158.926
	c4.082,12.031,7.996,24.094,11.816,36.176c12.422-11.027,23.484-23.645,32.91-37.309c0.684-0.992,1.391-1.973,2.063-2.977
	c1.48-2.23,2.918-4.512,4.316-6.82c-13.367-18.441-26.727-36.891-40.09-55.336c-13.918-19.203-28.277-39.488-31.344-63.008
	c-2.844-21.789,4.102-39.77,13.977-56.84c-1.102-0.438-2.191-0.914-3.301-1.32c-22.535-8.254-46.695-12.313-70.512-12.008
	C1328.074,1179.953,1334.156,1193.461,1340.086,1207.004z"/>
<path style="fill:#EBF2E5;" d="M297.152,1574.219c11.523-1.707,23.449-11.344,34.223-16.32
	c-33.707-35.027-55.676-80.02-62.832-128.039c-16.852,21.758-31.699,45.305-37.555,71.996c-0.27,1.234-0.473,2.488-0.695,3.738
	C235.297,1542.762,254.512,1580.516,297.152,1574.219z"/>
<path style="fill:#EBF2E5;" d="M361.98,1358.988c3.855,35.125,16.133,68.898,35.484,98.258c9.828,6.258,20.324,11.457,31.305,15.355
	c15.816,5.625,33.488-1.203,41.453-15.988c2.688-4.992,4.922-10.074,6.574-15.176c4.918-15.207-0.094-36.656-1.93-52.164
	c-2.309-19.504-5.379-38.93-6.824-58.531c-0.051-0.644-0.078-1.297-0.125-1.941c-6.68-16.563-10.215-34.148-8.688-51.887
	c0.766-8.859,2.855-17.414,5.945-25.594c-13.68,8.961-26.805,18.301-39.23,27.191c-22.766,16.281-44.488,33.969-65.254,52.73
	C360.563,1340.492,360.969,1349.758,361.98,1358.988z"/>
<path style="fill:#EBF2E5;" d="M297.879,1506.594c19.098,10.008,38.414,19.773,58.422,27.699c9.332,3.703,19.797,3.145,28.707-1.48
	c12.57-6.523,24.758-13.691,36.164-22.09c3.395-2.492,6.848-5.227,10.293-8.149c-1.297-1.23-2.465-2.59-3.719-3.859
	c-44.758-42.93-70.066-102.77-70.402-164.414c-28.012,25.605-54.211,53.215-78.355,82.469c-2.578,3.121-5.141,6.277-7.664,9.473
	c0.828,6.375,1.914,12.719,3.289,19.012C279.355,1466.992,287.336,1487.57,297.879,1506.594z"/>
<path style="fill:#C6CAD6;" d="M431.465,1502.574c-3.445,2.922-6.898,5.656-10.293,8.149c-11.406,8.398-23.594,15.566-36.164,22.09
	c-8.91,4.625-19.375,5.184-28.707,1.48c-20.008-7.926-39.324-17.691-58.422-27.699c15.738,28.406,37.375,53.184,63.281,72.664
	c17.367-6.305,34.281-15.012,50.488-25.43c15.129-9.719,30.082-20.539,43.207-32.914c-9.691-6.746-18.738-14.18-27.109-22.199
	C429,1499.984,430.168,1501.344,431.465,1502.574z"/>
<path style="fill:#C6CAD6;" d="M490.301,1471.02c9.949-25.148,10.355-53.266,5.707-79.906c-1.32-7.566-3.063-15.027-5.047-22.43
	c-0.727-0.965-1.477-1.914-2.188-2.887c-1.582-2.168-3.105-4.391-4.602-6.633c-6.379-9.551-11.969-19.738-16.254-30.363
	c0.047,0.645,0.074,1.297,0.125,1.941c1.445,19.602,4.516,39.027,6.824,58.531c1.836,15.508,6.848,36.957,1.93,52.164
	c-1.652,5.102-3.887,10.184-6.574,15.176c-7.965,14.785-25.637,21.613-41.453,15.988c-10.98-3.898-21.477-9.098-31.305-15.355
	c5.102,7.734,10.664,15.184,16.73,22.25c12.676,14.77,27.301,27.84,43.324,38.895C471.473,1504.727,483.125,1489.16,490.301,1471.02
	z"/>
<path style="fill:#C6CAD6;" d="M356.813,1580.766c-9.105-7.004-17.563-14.684-25.438-22.867
	c-10.773,4.977-22.699,14.613-34.223,16.32c-42.641,6.297-61.855-31.457-66.859-68.625c-4.648,26.004,1.047,54.906,18.234,74
	C285.059,1594.324,321.813,1592.586,356.813,1580.766z"/>
<path style="fill:#A1A8C3;" d="M508.633,1425.387c2.797-9.289,5.695-18.559,8.649-27.82c-9.66-8.77-18.477-18.488-26.32-28.883
	c1.984,7.402,3.727,14.863,5.047,22.43c4.648,26.641,4.242,54.758-5.707,79.906c-7.176,18.141-18.828,33.707-32.781,47.371
	c1.063,0.73,2.07,1.535,3.148,2.254c6.051,4.016,12.773,8.383,19.875,12.285c3.188-15.938,7.047-31.809,11.164-47.508
	c2.594-9.883,5.285-19.754,8.059-29.605c0.32-1.133,0.652-2.258,0.977-3.387C503.301,1443.402,505.918,1434.387,508.633,1425.387z"
	/>
<path style="fill:#A1A8C3;" d="M456.246,1521.902c-0.473-0.32-0.926-0.664-1.391-0.988c-13.125,12.375-28.078,23.195-43.207,32.914
	c-16.207,10.418-33.121,19.125-50.488,25.43c5.332,4.012,10.789,7.871,16.469,11.414c35.504-10.461,69.348-26.695,100.801-46.516
	c0.449-2.52,0.91-5.039,1.398-7.558C471.367,1532.063,463.379,1526.789,456.246,1521.902z"/>
<path style="fill:#A1A8C3;" d="M356.813,1580.766c-35,11.82-71.754,13.559-108.285-1.172c3.473,3.867,7.367,7.363,11.789,10.313
	c21.555,14.367,49.598,14.176,75.199,10.23c12.648-1.945,25.125-4.726,37.422-8.156c-0.945-0.605-1.934-1.125-2.867-1.742
	C365.52,1587.227,361.102,1584.066,356.813,1580.766z"/>
<path style="fill:#203A73;" d="M427.746,1498.715c8.371,8.02,17.418,15.453,27.109,22.199c0.465,0.324,0.918,0.668,1.391,0.988
	c7.133,4.887,15.121,10.16,23.582,14.695c0.234-1.223,0.469-2.445,0.715-3.668c-7.102-3.902-13.824-8.269-19.875-12.285
	c-1.078-0.719-2.086-1.523-3.148-2.254c-16.023-11.055-30.648-24.125-43.324-38.895c-6.066-7.066-11.629-14.516-16.73-22.25
	c-19.352-29.359-31.629-63.133-35.484-98.258c-1.012-9.23-1.418-18.496-1.289-27.746c-1.121,1.012-2.23,2.035-3.348,3.059
	C357.68,1395.945,382.988,1455.785,427.746,1498.715z"/>
<path style="fill:#203A73;" d="M297.879,1506.594c-10.543-19.023-18.523-39.602-23.266-61.34
	c-1.375-6.293-2.461-12.637-3.289-19.012c-0.945,1.191-1.848,2.414-2.781,3.617c7.156,48.02,29.125,93.012,62.832,128.039
	c7.875,8.184,16.332,15.863,25.438,22.867c4.289,3.301,8.707,6.461,13.258,9.473c0.934,0.617,1.922,1.137,2.867,1.742
	c1.563-0.434,3.133-0.852,4.691-1.309c-5.68-3.543-11.137-7.402-16.469-11.414C335.254,1559.777,313.617,1535,297.879,1506.594z"/>
<path style="fill:#203A73;" d="M467.918,1328.801c4.285,10.625,9.875,20.813,16.254,30.363
	c12.57-18.996,25.141-37.992,37.711-56.984c13.086-19.781,26.574-40.652,28.641-64.281c1.922-21.891-5.789-39.563-16.371-56.195
	c-30.672,13.668-57.328,38.813-68.977,69.617c-3.09,8.18-5.18,16.734-5.945,25.594
	C457.703,1294.652,461.238,1312.238,467.918,1328.801z"/>
<path style="fill:#1F2A50;" d="M550.523,1237.898c-2.066,23.629-15.555,44.5-28.641,64.281
	c-12.57,18.992-25.141,37.988-37.711,56.984c1.496,2.242,3.02,4.465,4.602,6.633c0.711,0.973,1.461,1.922,2.188,2.887
	c7.844,10.395,16.66,20.113,26.32,28.883c22.137-69.332,48.66-137.875,78.914-205.504c4.012-8.969,8.102-17.914,12.246-26.852
	c-24.172,0.582-48.543,5.684-71.047,15.031c-1.094,0.449-2.16,0.977-3.242,1.461
	C544.734,1198.336,552.445,1216.008,550.523,1237.898z"/>
<path style="fill:#EBF2E5;" d="M1239.824,1491.293c2.883,35.473-1.762,71.129-12.797,104.746
	c9.148-8.086,18.043-16.422,26.613-25.023c27.25-27.348,51.906-57.07,74.863-88.074
	C1299.117,1487.891,1269.402,1490.672,1239.824,1491.293z"/>
<path style="fill:#EBF2E5;" d="M691.23,1491.293c-50.887-1.07-102.184-8.477-151.477-22.5
	c49.121,63.227,109.23,117.938,177.063,160.465c-3.477-7.262-6.402-14.77-8.941-22.422
	C694.117,1570.258,688.031,1530.758,691.23,1491.293z"/>
<path style="fill:#EBF2E5;" d="M1340.086,1207.004c-84.105,28.484-172.648,45.004-261.227,50.07
	c-130.164,7.453-260.805-8.664-387.063-40.164c-31.484-7.852-64.473-14.805-95.602-24.848
	c-30.254,67.629-56.777,136.172-78.914,205.504c-2.953,9.262-5.852,18.531-8.649,27.82c8.719,13.227,17.91,26.145,27.524,38.738
	c50.98,14.965,104.227,22.75,156.953,23.695c0.887,0.016,1.848,0.805,1.762,1.766c-2.297,26.145-0.43,52.371,5.051,77.813
	c1.898,3.617,3.77,7.246,5.762,10.809c24.945,44.645,63.711,79.859,110.031,100.637c-35.906-30.863-62.777-72.582-78.031-117.652
	c-21.145-62.457-21.367-130.695-8.527-195.379c4.758-23.953,12.426-49.359,31.894-64.105c17.715-13.418,389.875-13.418,407.59,0
	c19.469,14.746,27.133,40.152,31.891,64.105c12.844,64.684,12.621,132.922-8.52,195.379
	c-12.563,37.109-33.027,71.941-59.883,100.332c44.289-27.742,78.605-69.348,97.68-118.738c2.449-6.344,4.77-12.738,7.043-19.145
	c0.527-11.313,0.336-22.688-0.664-34.055c-0.086-0.969,0.879-1.75,1.766-1.766c31.184-0.559,62.543-3.535,93.512-8.938
	c11.195-15.273,22.031-30.813,32.504-46.57c7.395-11.113,21.648-41.77,38.031-66.383
	C1383.844,1312.449,1363.082,1259.457,1340.086,1207.004z"/>
<path style="fill:#C6CAD6;" d="M1132.129,1661.523c-18.352,19.391-39.652,35.809-63.582,47.785
	c-61.461,30.762-145.777,30.84-207.402,0c-16.418-8.219-31.574-18.559-45.43-30.465c-46.32-20.777-85.086-55.992-110.031-100.637
	c-1.992-3.563-3.863-7.191-5.762-10.809c8.352,38.73,25.16,75.625,49.059,107.516c34.25,45.699,82.613,79.227,137.816,94.164
	c29.258,7.922,58.898,9.641,89.063,9.344c30.504-0.309,60.977-5.617,89.652-16.066c99.113-36.129,166.523-134.789,171.34-238.715
	c-2.273,6.406-4.594,12.801-7.043,19.145C1210.734,1592.176,1176.418,1633.781,1132.129,1661.523z"/>
<path style="fill:#C6CAD6;" d="M1448.215,1528.445c-3.004-14.434-6.504-28.797-10.234-43.023
	c-2.551-9.723-5.199-19.434-7.926-29.133c-32.867,12.02-66.98,20.828-101.551,26.652c-22.957,31.004-47.613,60.727-74.863,88.074
	c-8.57,8.602-17.465,16.938-26.613,25.023c-9.719,29.609-24.352,57.641-43.313,82.523c-34.691,45.52-83.152,78.961-138.512,93.914
	c-29.957,8.098-60.391,9.898-91.289,9.445c-30.762-0.438-61.551-5.895-90.422-16.578c-72.82-26.969-128.781-87.164-155.617-158.508
	c2.539,7.652,5.465,15.16,8.941,22.422c-67.832-42.527-127.941-97.238-177.063-160.465c-13.492-3.836-26.848-8.133-39.988-12.977
	c-2.773,9.852-5.465,19.723-8.059,29.605c-4.117,15.699-7.977,31.57-11.164,47.508c-0.246,1.223-0.48,2.445-0.715,3.668
	c-0.488,2.519-0.949,5.039-1.398,7.558c-8.223,46.188-9.855,92.789,5.93,137.531c0.402,1.148,0.898,2.246,1.32,3.387
	c11.137,15.93,23.242,31.199,36.238,45.656c33.051,36.742,71.672,68.414,113.851,94.145c47.688,29.09,100.016,50.637,154.434,63.277
	c143.965,33.438,299.172,6.391,428.762-64.672c93.844-51.465,174.359-125.07,238.309-211.129
	C1457.816,1584.469,1454.02,1556.336,1448.215,1528.445z"/>
<path style="fill:#C6CAD6;" d="M1331.465,1478.883c33.238-5.797,66.016-14.402,97.621-25.98c-4.813-16.98-9.926-33.91-15.27-50.797
	c-3.82-12.082-7.734-24.145-11.816-36.176c-16.383,24.613-30.637,55.27-38.031,66.383
	C1353.496,1448.07,1342.66,1463.609,1331.465,1478.883z"/>
<path style="fill:#C6CAD6;" d="M508.633,1425.387c-2.715,9-5.332,18.016-7.891,27.043c11.656,4.301,23.473,8.188,35.414,11.695
	C526.543,1451.531,517.352,1438.613,508.633,1425.387z"/>
<path style="fill:#203A73;" d="M1331.465,1478.883c-30.969,5.402-62.328,8.379-93.512,8.938c-0.887,0.016-1.852,0.797-1.766,1.766
	c1,11.367,1.191,22.742,0.664,34.055c-4.816,103.926-72.227,202.586-171.34,238.715c-28.676,10.449-59.148,15.758-89.652,16.066
	c-30.164,0.297-59.805-1.422-89.063-9.344c-55.203-14.938-103.566-48.465-137.816-94.164
	c-23.898-31.891-40.707-68.785-49.059-107.516c-5.48-25.441-7.348-51.668-5.051-77.813c0.086-0.961-0.875-1.75-1.762-1.766
	c-52.727-0.945-105.973-8.73-156.953-23.695c-11.942-3.508-23.758-7.395-35.414-11.695c-0.324,1.129-0.656,2.254-0.977,3.387
	c13.141,4.844,26.496,9.141,39.988,12.977c49.293,14.023,100.59,21.43,151.477,22.5c-3.199,39.465,2.887,78.965,16.645,115.543
	c26.836,71.344,82.797,131.539,155.617,158.508c28.871,10.684,59.66,16.141,90.422,16.578c30.898,0.453,61.332-1.348,91.289-9.445
	c55.359-14.953,103.82-48.395,138.512-93.914c18.961-24.883,33.594-52.914,43.313-82.523c11.035-33.617,15.68-69.273,12.797-104.746
	c29.578-0.621,59.293-3.402,88.68-8.352c34.57-5.824,68.684-14.633,101.551-26.652c-0.32-1.125-0.645-2.254-0.969-3.387
	C1397.48,1464.48,1364.703,1473.086,1331.465,1478.883z"/>
<path style="fill:#A1A8C3;" d="M596.195,1192.063c31.129,10.043,64.117,16.996,95.602,24.848
	c126.258,31.5,256.898,47.617,387.063,40.164c88.578-5.066,177.121-21.586,261.227-50.07c-5.93-13.543-12.012-27.051-18.25-40.516
	c-0.535-1.164-1.063-2.328-1.598-3.492c-4.266,1.418-8.523,2.813-12.781,4.168c-1.109,0.355-2.223,0.711-3.332,1.063
	c-220.734,69.875-457.824,69.875-678.563,0c-1.109-0.352-2.219-0.707-3.328-1.063c-4.258-1.355-8.52-2.75-12.781-4.168
	c-0.34,0.738-0.672,1.477-1.012,2.215C604.297,1174.148,600.207,1183.094,596.195,1192.063z"/>
<path style="fill:#A1A8C3;" d="M1218.965,1823.48c-129.59,71.063-284.797,98.109-428.762,64.672
	c-54.418-12.641-106.746-34.188-154.434-63.277c-42.18-25.73-80.801-57.402-113.851-94.145
	c-12.996-14.457-25.102-29.727-36.238-45.656c19.754,53.066,59.719,95.777,103.918,131.422c14.371,11.59,29.172,22.449,43.871,32.66
	c62.289,43.297,131.09,79.961,204.058,101.68c39.262,11.684,79.715,19.113,121.055,20.75c55.844,2.211,111.336-7.703,164.137-25.961
	c44.391-15.344,86.883-36.559,126.016-61.613c41.148-26.348,85.383-56.684,122.5-92.879c32.387-31.594,59.355-67.648,74.098-109.445
	c8.016-22.727,11.488-45.945,11.941-69.336C1393.324,1698.41,1312.809,1772.016,1218.965,1823.48z"/>
<path style="fill:#EBF2E5;" d="M1534.055,747.137c-5.961-22.953-13.105-45.547-20.781-67.969
	c-3.609-10.539-7.301-21.055-11.109-31.527c-1.039-5.996-2.18-11.977-3.262-17.969c-18.563-102.867-43.68-204.555-75.344-304.176
	c-9.16-28.805-20.145-59.277-44.465-77.223c-26.449-19.516-63.77-19.289-93.98-6.355c-30.219,12.941-54.41,36.789-75.391,62.094
	c-26.105,31.488-48.207,65.703-67.766,101.52c-117.438-17.359-238.594-22.59-356.699-8.137
	c-18.434-32.859-39.133-64.289-63.254-93.383c-20.981-25.305-45.172-49.152-75.387-62.094c-30.215-12.934-67.535-13.16-93.981,6.355
	c-24.32,17.945-35.309,48.418-44.465,77.223c-31.652,99.57-56.809,201.195-75.375,304.012c-0.461,2.559-0.969,5.102-1.422,7.66
	c-4.766,12.922-9.379,25.894-13.871,38.91c-2.914,8.441-5.73,16.91-8.453,25.41c0.316,0.371,0.637,0.75,0.953,1.121
	c32.914,38.617,69.621,73.844,109.25,105.43c1.961-11.055,4.441-21.977,7.379-32.637c3.004-10.91,6.656-21.305,10.715-31.371
	c33.66-83.406,102.637-138.234,194.043-172.348c150.313-56.09,317.824-55.633,466.91,0c8.242,3.078,16.238,6.387,24.117,9.809
	c89.918,39.055,154.957,100.715,180.641,193.91c6.289,22.813,10.531,46.809,11.867,70.777c4.684,13.133,7.926,26.672,9.348,40.305
	c42.797-23.543,83.531-50.789,121.523-81.426C1542.922,785.414,1538.949,765.992,1534.055,747.137z"/>
<path style="fill:#C6CAD6;" d="M622.234,1167.164c1.109,0.355,2.219,0.711,3.328,1.063c220.738,69.875,457.828,69.875,678.563,0
	c1.109-0.352,2.223-0.707,3.332-1.063c4.258-1.355,8.516-2.75,12.781-4.168c61.66-20.555,122.922-47.898,165.891-96.277
	c20.477-23.059,35.422-49.387,45.789-77.68c20.797-56.801,23.012-121.555,13.879-183.981
	c-37.992,30.637-78.727,57.883-121.523,81.426c2.406,22.918-0.137,46.027-8.926,67.602
	c-43.586,106.953-167.418,134.789-269.063,154.813c-139.449,27.473-294.793,20.082-432.438-13.012
	c-100.766-24.223-196.035-83.02-196.285-193.34c-5.125-30.719-3.867-63.148,1.691-94.508
	c-39.629-31.586-76.336-66.813-109.25-105.43c-0.316-0.371-0.637-0.75-0.953-1.121c-4.84,15.098-9.426,30.277-13.418,45.648
	c-20.496,78.938-25.219,167.574,2.305,242.34c10.359,28.125,25.25,54.301,45.621,77.242
	c42.969,48.379,104.227,75.723,165.894,96.277C613.715,1164.414,617.977,1165.809,622.234,1167.164z"/>
<path style="fill:#A1A8C3;" d="M1368.055,995.293c-33.543,35.586-82.355,54.633-130.484,69.113c-0.809,0.246-1.621,0.488-2.43,0.73
	c-169.16,50.453-372.406,50.227-540.59,0c-0.809-0.242-1.625-0.484-2.43-0.73c-48.125-14.48-96.941-33.527-130.488-69.113
	c-24.645-26.141-38.34-58.371-44.07-92.746c0.25,110.32,95.519,169.117,196.285,193.34
	c137.645,33.094,292.988,40.484,432.438,13.012c101.645-20.023,225.477-47.859,269.063-154.813
	c8.789-21.574,11.332-44.684,8.926-67.602c-1.422-13.633-4.664-27.172-9.348-40.305
	C1417.965,900.742,1405.875,955.176,1368.055,995.293z"/>
<path style="fill:#C6CAD6;" d="M1223.078,444.453c23.27,13.645,49.09,23.121,73.043,36.207
	c20.074,10.965,40.043,21.965,59.723,33.586c16.598,9.797,54.68,40.008,54.68,40.008s-34.477-51.414-55.504-74.703
	c-15.234-16.871-32.035-31.852-50.934-42.688c-45.262-25.949-157.582-30.234-157.582-30.234s27.895,12.125,36.57,16.363
	C1196.672,429.637,1210.02,436.797,1223.078,444.453z"/>
<path style="fill:#C6CAD6;" d="M630.973,474.383c23.953-13.086,49.773-22.563,73.043-36.203
	c13.059-7.656,26.406-14.816,40.008-21.465c8.676-4.234,36.566-16.363,36.566-16.363s-112.32,4.285-157.582,30.238
	c-18.898,10.832-35.699,25.816-50.934,42.688c-21.027,23.285-55.5,74.703-55.5,74.703s38.074-30.215,54.672-40.012
	C590.93,496.352,610.898,485.348,630.973,474.383z"/>
<path style="fill:#20325F;" d="M1333.895,670.664c-31.707-35.766-70.828-63.672-111.477-89.172
	c-7.879-3.422-15.875-6.73-24.117-9.809c-149.086-55.633-316.598-56.09-466.91,0c-91.406,34.113-160.383,88.941-194.043,172.348
	c-3.637,24.016-5.223,48.242-3.953,72.559c3.383,64.91,29.449,130.938,80.535,171.129c44.723,35.18,103.016,47.234,159.32,55.453
	c137.391,20.055,279.684,23.176,413.055-15.414c46.773-13.535,92.738-32.488,130.898-62.731
	c38.156-30.246,68.082-72.813,76.059-120.848C1403.609,781.824,1375.824,717.961,1333.895,670.664z"/>
<path style="fill:#1F2A50;" d="M692.121,1064.406c0.805,0.246,1.621,0.488,2.43,0.73c168.184,50.227,371.43,50.453,540.59,0
	c0.809-0.242,1.621-0.484,2.43-0.73c48.129-14.48,96.941-33.527,130.484-69.113c37.82-40.117,49.91-94.551,46.871-149.113
	c-1.336-23.969-5.578-47.965-11.867-70.777c-25.684-93.195-90.723-154.855-180.641-193.91c40.648,25.5,79.77,53.406,111.477,89.172
	c41.93,47.297,69.715,111.16,59.367,173.516c-7.977,48.035-37.902,90.602-76.059,120.848
	c-38.16,30.242-84.125,49.195-130.898,62.731c-133.371,38.59-275.664,35.469-413.055,15.414
	c-56.305-8.219-114.598-20.273-159.32-55.453c-51.086-40.191-77.152-106.219-80.535-171.129
	c-1.269-24.316,0.316-48.543,3.953-72.559c-4.059,10.067-7.711,20.461-10.715,31.371c-2.938,10.66-5.418,21.582-7.379,32.637
	c-5.559,31.359-6.816,63.789-1.691,94.508c5.731,34.375,19.426,66.605,44.07,92.746
	C595.18,1030.879,643.996,1049.926,692.121,1064.406z"/>
<path style="fill:#203A73;" d="M1275.781,673.09c-27.16-30.141-63.148-50.566-101.176-63.781
	c-76.223-26.488-160.387-27.152-239.957-20.504c-40.004,3.344-79.738,9.832-118.801,19.047
	c-107.172,25.273-233.383,82.945-254.887,203.82c-7.953,44.711,11.406,97.813,54.301,112.719c25.106,8.723,52.66,3.086,78.617-2.625
	c5.172-1.141,10.344-2.277,15.512-3.414c-24.102-5.949-46.313-19.254-61.594-38.82c-29.574-37.867-26.738-88.148-4.77-127.582
	c23.469-42.141,68.781-71.898,119.73-60.906c70.992,15.316,116.828,120.519,71.707,180.652c-6.848,9.125-14.941,17.32-23.902,24.391
	c82.539-18.16,165.074-36.32,247.605-54.484c7.547-1.66,15.09-3.32,22.633-4.981c-5.68-28.535,0.43-58.91,14.777-84.672
	c23.473-42.141,68.781-71.898,119.734-60.906c38.559,8.32,69.652,43.164,82.824,82.894
	C1338,735.723,1302.363,702.59,1275.781,673.09z"/>
<path style="fill:#3EC0F0;" d="M834.465,871.695c45.121-60.133-0.715-165.336-71.707-180.652
	c-50.949-10.992-96.262,18.766-119.73,60.906c-21.969,39.434-24.805,89.715,4.77,127.582c15.281,19.567,37.492,32.871,61.594,38.82
	c19.441,4.797,40.106,4.82,59.379-0.606c15.27-4.297,29.391-11.871,41.793-21.66C819.523,889.016,827.617,880.82,834.465,871.695z"
	/>
<path style="fill:#3EC0F0;" d="M1215.313,691.043c-50.953-10.992-96.262,18.766-119.734,60.906
	c-14.348,25.762-20.457,56.137-14.777,84.672c3.016,15.145,9.293,29.777,19.547,42.91c27.613,35.352,77.797,50.371,120.977,38.215
	c26.293-7.402,49.367-24.297,65.691-46.051c20.617-27.473,22.207-64.34,11.121-97.758
	C1284.965,734.207,1253.871,699.363,1215.313,691.043z"/>
<path style="fill:#203A73;" d="M1200.531,1365.813c-4.758-23.953-12.422-49.359-31.891-64.105
	c-17.715-13.418-389.875-13.418-407.59,0c-19.469,14.746-27.137,40.152-31.894,64.105c-12.84,64.684-12.617,132.922,8.527,195.379
	c15.254,45.07,42.125,86.789,78.031,117.652c13.855,11.906,29.012,22.246,45.43,30.465c61.625,30.84,145.941,30.762,207.402,0
	c23.93-11.977,45.23-28.395,63.582-47.785c26.855-28.391,47.32-63.223,59.883-100.332
	C1213.152,1498.734,1213.375,1430.496,1200.531,1365.813z"/>
<path style="fill:#3EC0F0;" d="M1159.699,1315.168c-0.559-0.441-1.031-0.965-1.613-1.391c-16.797-12.316-369.688-12.316-386.484,0
	c-18.465,13.543-25.73,36.863-30.242,58.855c-10.875,53.023-11.82,108.652,2.367,160.785
	c42.527,44.898,103.012,74.016,165.938,77.684c81,4.727,163.332-32.73,211.273-96.121
	C1163.707,1458.438,1177.793,1382.883,1159.699,1315.168z"/>
<path style="fill:#8DD3F6;" d="M801.527,1512.813c40.766,15.977,86.277-3.605,125.527-22.813
	c46.43-22.715,92.863-45.434,139.297-68.148c21.535-10.535,45.93-23.223,51.18-48.238c4.137-19.723-5.422-32.414-25.141-36.715
	c-28.438-6.199-62.211-3.414-91.273-3.816c-32.109-0.441-64.227-0.059-96.313,1.152c-39.527,1.496-81.391,5.059-113.301,27.691
	c-25.539,18.125-42.016,48.422-40.703,79.055C752.105,1471.605,772.18,1501.313,801.527,1512.813z"/>
<path style="fill:#3C8EC1;" d="M1188.332,1372.633c-4.371-21.301-11.422-43.766-28.633-57.465
	c18.094,67.715,4.008,143.27-38.762,199.813c-47.941,63.391-130.273,100.848-211.273,96.121
	c-62.926-3.668-123.41-32.785-165.938-77.684c1.699,6.246,3.57,12.457,5.719,18.59c20.047,57.336,61.156,108.887,117.066,135.98
	c58.434,28.313,138.391,28.238,196.664,0.004c55.91-27.098,97.023-78.648,117.07-135.984
	C1200.293,1494.668,1200.504,1432.016,1188.332,1372.633z"/>
</svg>
