<?xml version="1.0" encoding="utf-8"?>
<!-- Generator: Adobe Illustrator 27.5.0, SVG Export Plug-In . SVG Version: 6.00 Build 0)  -->
<svg version="1.1" id="Capa_1" xmlns="http://www.w3.org/2000/svg" xmlns:xlink="http://www.w3.org/1999/xlink" x="0px" y="0px"
	 viewBox="0 0 2122 2122" style="enable-background:new 0 0 2122 2122;" xml:space="preserve">
<rect x="0.01" y="0.007" style="fill:#45BABD;" width="2121.301" height="2121.306"/>
<polygon style="fill:#009EB6;" points="2121.311,2121.313 1170.406,2121.313 432.795,1646.416 1688.53,390.681 2121.311,768.305 "/>
<rect x="432.795" y="390.681" style="fill:#FFFFFF;" width="1255.735" height="1255.735"/>
<g>
	<path style="fill:#1D2342;" d="M781.849,500.804H542.884v238.953h238.965V500.804z M743.306,701.221H581.422V539.344h161.884
		V701.221z"/>
	<rect x="610.859" y="570.94" style="fill:#1D2342;" width="98.698" height="98.681"/>
	<rect x="861.508" y="500.804" style="fill:#1D2342;" width="79.653" height="79.656"/>
	<polygon style="fill:#1D2342;" points="622.542,899.071 542.884,899.071 542.884,978.717 542.884,1058.387 622.542,1058.387 
		622.542,978.717 	"/>
	<rect x="702.196" y="899.071" style="fill:#1D2342;" width="79.653" height="79.646"/>
	<rect x="622.542" y="819.425" style="fill:#1D2342;" width="79.654" height="79.646"/>
	<polygon style="fill:#1D2342;" points="1419.12,899.071 1419.12,819.425 1339.457,819.425 1259.794,819.425 1259.794,899.071 
		1339.457,899.071 1339.457,978.717 1419.12,978.717 1419.12,1058.387 1339.457,1058.387 1259.794,1058.387 1259.794,978.717 
		1259.794,899.071 1180.136,899.071 1180.136,819.425 1259.794,819.425 1259.794,739.757 1259.794,660.106 1180.136,660.106 
		1180.136,580.46 1259.794,580.46 1259.794,500.804 1180.136,500.804 1100.482,500.804 1020.824,500.804 1020.824,580.46 
		1100.482,580.46 1100.482,660.106 1100.482,739.757 1020.824,739.757 1020.824,819.425 1100.482,819.425 1100.482,899.071 
		1100.482,978.717 1020.824,978.717 1020.824,1058.387 1100.482,1058.387 1100.482,1138.029 1100.482,1217.684 1020.824,1217.684 
		1020.824,1297.331 1100.482,1297.331 1100.482,1376.981 1100.482,1456.642 1020.824,1456.642 1020.824,1536.293 1100.482,1536.293 
		1180.136,1536.293 1259.794,1536.293 1259.794,1456.642 1180.136,1456.642 1180.136,1376.981 1259.794,1376.981 1259.794,1297.331 
		1259.794,1217.684 1180.136,1217.684 1180.136,1138.029 1259.794,1138.029 1339.457,1138.029 1339.457,1217.684 1419.12,1217.684 
		1419.12,1138.029 1498.778,1138.029 1498.778,1217.684 1578.441,1217.684 1578.441,1138.029 1578.441,1058.387 1498.778,1058.387 
		1498.778,978.717 1578.441,978.717 1578.441,899.071 1498.778,899.071 	"/>
	<path style="fill:#1D2342;" d="M1339.457,500.804v238.953h238.984V500.804H1339.457z M1539.889,701.221H1378V539.344h161.889
		V701.221z"/>
	<rect x="1407.432" y="570.94" style="fill:#1D2342;" width="98.703" height="98.681"/>
	<path style="fill:#1D2342;" d="M542.884,1536.293h238.965v-238.962H542.884V1536.293z M581.422,1335.871h161.884v161.894H581.422
		V1335.871z"/>
	<rect x="610.859" y="1367.476" style="fill:#1D2342;" width="98.698" height="98.689"/>
	<polygon style="fill:#1D2342;" points="1020.824,1297.331 941.161,1297.331 941.161,1217.684 1020.824,1217.684 1020.824,1138.029 
		1020.824,1058.387 941.161,1058.387 941.161,978.717 1020.824,978.717 1020.824,899.071 941.161,899.071 941.161,819.425 
		941.161,739.757 1020.824,739.757 1020.824,660.106 1020.824,580.46 941.161,580.46 941.161,660.106 861.508,660.106 
		861.508,739.757 861.508,819.425 781.849,819.425 781.849,899.071 861.508,899.071 861.508,978.717 781.849,978.717 
		781.849,1058.387 861.508,1058.387 861.508,1138.029 781.849,1138.029 781.849,1058.387 702.196,1058.387 622.542,1058.387 
		622.542,1138.029 702.196,1138.029 702.196,1217.684 781.849,1217.684 861.508,1217.684 861.508,1297.331 861.508,1376.981 
		941.161,1376.981 941.161,1456.642 1020.824,1456.642 1020.824,1376.981 	"/>
	<rect x="861.508" y="1456.642" style="fill:#1D2342;" width="79.653" height="79.651"/>
	<rect x="542.884" y="1138.029" style="fill:#1D2342;" width="79.658" height="79.656"/>
	<path style="fill:#1D2342;" d="M1339.457,1536.293h238.984v-238.962h-238.984V1536.293z M1378,1335.871h161.889v161.894H1378
		V1335.871z"/>
	<rect x="1407.432" y="1367.476" style="fill:#1D2342;" width="98.703" height="98.689"/>
</g>
<g>
	<g>
		<g>
			<path style="fill:#22282A;" d="M827.247,1265.467c0,10.509-8.526,19.03-19.031,19.03l0,0c-10.514,0-19.03-8.521-19.03-19.03
				v-80.596c0-10.514,8.516-19.031,19.03-19.031l0,0c10.504,0,19.031,8.516,19.031,19.031V1265.467z"/>
			<path style="fill:#22282A;" d="M827.949,1124.075c0,10.509-8.526,19.033-19.03,19.033l0,0c-10.514,0-19.031-8.524-19.031-19.033
				V936.07c0-10.512,8.516-19.028,19.031-19.028l0,0c10.504,0,19.03,8.516,19.03,19.028V1124.075z"/>
			<path style="fill:#343C40;" d="M820.816,1116.521c0,8.541-5.641,15.464-12.599,15.464l0,0c-6.957,0-12.599-6.923-12.599-15.464
				V943.623c0-8.541,5.642-15.464,12.599-15.464l0,0c6.958,0,12.599,6.923,12.599,15.464V1116.521z"/>
			<path style="fill:#343C40;" d="M820.104,1257.913c0,8.541-5.476,15.461-12.238,15.461l0,0c-6.762,0-12.249-6.921-12.249-15.461
				v-65.492c0-8.539,5.486-15.459,12.249-15.459l0,0c6.763,0,12.238,6.921,12.238,15.459V1257.913z"/>
			<path style="fill:#22282A;" d="M1332.139,1762.325c0,23.685-19.196,42.886-42.884,42.886H851.802
				c-23.688,0-42.884-19.201-42.884-42.886V835.963c0-23.688,19.196-42.886,42.884-42.886h437.453
				c23.688,0,42.884,19.199,42.884,42.886V1762.325z"/>
			<path style="fill:#343C40;" d="M1289.255,793.077H851.802c-23.688,0-42.884,19.199-42.884,42.886v15.011
				c0-23.685,19.196-42.886,42.884-42.886h437.453c23.688,0,42.884,19.201,42.884,42.886v-15.011
				C1332.139,812.275,1312.943,793.077,1289.255,793.077z"/>
			<path style="fill:#343C40;" d="M851.802,1805.211h437.453c23.688,0,42.884-19.204,42.884-42.886v-15.008
				c0,23.681-19.196,42.884-42.884,42.884H851.802c-23.688,0-42.884-19.203-42.884-42.884v15.008
				C808.919,1786.008,828.114,1805.211,851.802,1805.211z"/>
			<path style="fill:#61B9D9;" d="M1316.402,1734.464c0,22.258-18.046,40.304-40.311,40.304H864.957
				c-22.256,0-40.302-18.046-40.302-40.304V863.826c0-22.26,18.046-40.309,40.302-40.309h411.134
				c22.265,0,40.311,18.049,40.311,40.309V1734.464z"/>
			<path style="fill:#4FB5D8;" d="M848.791,826.915c-14.207,6.232-24.136,20.402-24.136,36.911v870.638
				c0,22.258,18.046,40.304,40.302,40.304h411.134c22.265,0,40.311-18.046,40.311-40.304v-65.437
				C1256.563,1572.093,896.021,904.983,848.791,826.915z"/>
			<path style="fill:#22282A;" d="M1077.671,816.621v-0.709l-7.142,0.353l-7.152-0.353v0.709l-139.02,6.896
				c0,0,32.886,2.716,40.74,8.979c8.936,7.125,12.502,14.655,16.439,24.66c5.252,13.357,15.746,12.823,29.115,12.823h52.726h14.294
				h52.735c13.369,0,23.863,0.533,29.115-12.823c3.937-10.005,7.503-17.535,16.439-24.66c7.854-6.263,40.74-8.979,40.74-8.979
				L1077.671,816.621z"/>
			<g>
				<path d="M1090.543,839.622c0,5.128-4.161,9.291-9.296,9.291h-55.746c-5.135,0-9.296-4.163-9.296-9.291l0,0
					c0-5.135,4.161-9.291,9.296-9.291h55.746C1086.382,830.331,1090.543,834.487,1090.543,839.622L1090.543,839.622z"/>
				<path d="M1124.852,839.622c0,5.128-4.161,9.291-9.296,9.291c-5.135,0-9.286-4.163-9.286-9.291c0-5.135,4.151-9.291,9.286-9.291
					C1120.691,830.331,1124.852,834.487,1124.852,839.622z"/>
			</g>
		</g>
		<g>
			<g>
				<rect x="912.723" y="1055.484" style="fill:#FFFFFF;" width="316.811" height="316.806"/>
				<polygon style="fill:#FFFFFF;" points="1252.403,1313.708 1252.403,1391.763 1170.952,1391.763 1170.952,1411.247 
					1270.118,1411.247 1270.118,1313.708 				"/>
				<polygon style="fill:#FFFFFF;" points="971.304,1032.619 893.244,1032.619 893.244,1114.07 873.766,1114.07 873.766,1014.902 
					971.304,1014.902 				"/>
				<g>
					<path style="fill:#1D2342;" d="M1001.248,1084.126h-59.897v59.887h59.897V1084.126z M991.592,1134.358h-40.574v-40.577h40.574
						V1134.358z"/>
					<rect x="958.393" y="1101.7" style="fill:#1D2342;" width="24.74" height="24.736"/>
					<rect x="1021.214" y="1084.126" style="fill:#1D2342;" width="19.965" height="19.961"/>
					<polygon style="fill:#1D2342;" points="961.316,1183.943 941.351,1183.943 941.351,1203.906 941.351,1223.872 
						961.316,1223.872 961.316,1203.906 					"/>
					<rect x="981.282" y="1183.943" style="fill:#1D2342;" width="19.966" height="19.963"/>
					<rect x="961.316" y="1163.98" style="fill:#1D2342;" width="19.966" height="19.963"/>
					<polygon style="fill:#1D2342;" points="1160.964,1183.943 1160.964,1163.98 1140.998,1163.98 1121.032,1163.98 
						1121.032,1183.943 1140.998,1183.943 1140.998,1203.906 1160.964,1203.906 1160.964,1223.872 1140.998,1223.872 
						1121.032,1223.872 1121.032,1203.906 1121.032,1183.943 1101.067,1183.943 1101.067,1163.98 1121.032,1163.98 
						1121.032,1144.014 1121.032,1124.053 1101.067,1124.053 1101.067,1104.087 1121.032,1104.087 1121.032,1084.126 
						1101.067,1084.126 1081.101,1084.126 1061.145,1084.126 1061.145,1104.087 1081.101,1104.087 1081.101,1124.053 
						1081.101,1144.014 1061.145,1144.014 1061.145,1163.98 1081.101,1163.98 1081.101,1183.943 1081.101,1203.906 
						1061.145,1203.906 1061.145,1223.872 1081.101,1223.872 1081.101,1243.833 1081.101,1263.798 1061.145,1263.798 
						1061.145,1283.759 1081.101,1283.759 1081.101,1303.722 1081.101,1323.686 1061.145,1323.686 1061.145,1343.649 
						1081.101,1343.649 1101.067,1343.649 1121.032,1343.649 1121.032,1323.686 1101.067,1323.686 1101.067,1303.722 
						1121.032,1303.722 1121.032,1283.759 1121.032,1263.798 1101.067,1263.798 1101.067,1243.833 1121.032,1243.833 
						1140.998,1243.833 1140.998,1263.798 1160.964,1263.798 1160.964,1243.833 1180.93,1243.833 1180.93,1263.798 
						1200.895,1263.798 1200.895,1243.833 1200.895,1223.872 1180.93,1223.872 1180.93,1203.906 1200.895,1203.906 
						1200.895,1183.943 1180.93,1183.943 					"/>
					<path style="fill:#1D2342;" d="M1140.998,1084.126v59.887h59.897v-59.887H1140.998z M1191.239,1134.358h-40.575v-40.577h40.575
						V1134.358z"/>
					<rect x="1158.041" y="1101.7" style="fill:#1D2342;" width="24.73" height="24.736"/>
					<path style="fill:#1D2342;" d="M941.351,1343.649h59.897v-59.89h-59.897V1343.649z M951.017,1293.418h40.574v40.58h-40.574
						V1293.418z"/>
					<rect x="958.393" y="1301.338" style="fill:#1D2342;" width="24.74" height="24.738"/>
					<polygon style="fill:#1D2342;" points="1061.145,1283.759 1041.179,1283.759 1041.179,1263.798 1061.145,1263.798 
						1061.145,1243.833 1061.145,1223.872 1041.179,1223.872 1041.179,1203.906 1061.145,1203.906 1061.145,1183.943 
						1041.179,1183.943 1041.179,1163.98 1041.179,1144.014 1061.145,1144.014 1061.145,1124.053 1061.145,1104.087 
						1041.179,1104.087 1041.179,1124.053 1021.214,1124.053 1021.214,1144.014 1021.214,1163.98 1001.248,1163.98 
						1001.248,1183.943 1021.214,1183.943 1021.214,1203.906 1001.248,1203.906 1001.248,1223.872 1021.214,1223.872 
						1021.214,1243.833 1001.248,1243.833 1001.248,1223.872 981.282,1223.872 961.316,1223.872 961.316,1243.833 981.282,1243.833 
						981.282,1263.798 1001.248,1263.798 1021.214,1263.798 1021.214,1283.759 1021.214,1303.722 1041.179,1303.722 
						1041.179,1323.686 1061.145,1323.686 1061.145,1303.722 					"/>
					<rect x="1021.214" y="1323.686" style="fill:#1D2342;" width="19.965" height="19.963"/>
					<rect x="941.351" y="1243.833" style="fill:#1D2342;" width="19.965" height="19.966"/>
					<path style="fill:#1D2342;" d="M1140.998,1343.649h59.897v-59.89h-59.897V1343.649z M1150.665,1293.418h40.575v40.58h-40.575
						V1293.418z"/>
					<rect x="1158.041" y="1301.338" style="fill:#1D2342;" width="24.73" height="24.738"/>
				</g>
			</g>
			<g>
				<g>
					<path style="fill:#0472A4;" d="M1220.53,1549.182c0,17.376-14.091,31.464-31.464,31.464H980.912
						c-17.374,0-31.464-14.088-31.464-31.464v-52.453c0-17.376,14.09-31.461,31.464-31.461h208.154
						c17.374,0,31.464,14.085,31.464,31.461V1549.182z"/>
					<path style="fill:#A0BECE;" d="M1189.066,1465.268H980.912c-10.3,0-19.42,4.972-25.159,12.628
						c4.628-2.68,9.988-4.239,15.727-4.239h208.144c17.384,0,31.474,14.088,31.474,31.469v52.443c0,7.076-2.368,13.583-6.304,18.84
						c9.393-5.442,15.737-15.586,15.737-27.227v-52.453C1220.53,1479.353,1206.439,1465.268,1189.066,1465.268z"/>
				</g>
				<g>
					<path style="fill:#FFFFFF;" d="M1023.791,1531.345l-0.063,1.087l-0.127,1.084l-0.195,1.023l-0.316,1.405l-0.317,0.894
						l-0.575,1.277l-0.449,0.831l-0.77,1.149l-0.638,0.767l-0.765,0.765l-0.77,0.704l-1.277,0.828l-0.828,0.575l-0.96,0.512
						l-0.891,0.448l-1.471,0.509l-1.915,0.641l-1.023,0.19l-1.593,0.255l-0.96,0.129l-1.408,0.127l-0.892,0.063l-1.467,0.066
						l-3.069,0.19h-1.403l-0.896-0.063l-1.466-0.127l-0.96-0.129l-1.087-0.193l-0.959-0.319l-1.403-0.446l-0.892-0.448l-0.96-0.446
						l-0.896-0.448l-0.828-0.512l-2.046-1.403l-0.765-0.641l-1.149-0.894l-0.765-0.639l-0.701-0.701l-0.511-0.575l-0.063-0.449
						l0.317-0.575l0.258-0.319l0.638-0.702l1.788-1.661l0.575-0.702l1.087-1.661l0.575-0.702l0.638-0.704l0.702-0.382l0.702,0.127
						l0.702,0.511l2.046,1.405l0.955,0.512l0.896,0.446l1.472,0.704l0.955,0.319l1.023,0.319l1.023,0.19l1.467,0.065l1.023,0.063
						l4.025-0.255l1.023-0.127l0.511-0.129l0.955-0.383l0.833-0.511l0.638-0.638l0.317-0.448l0.385-0.957l-0.063-1.086l-0.132-0.509
						l-0.507-0.894l-0.321-0.385l-0.828-0.639l-0.512-0.193l-0.96-0.382l-1.082-0.256l-1.091-0.19l-6.066-0.575l-1.915-0.385
						l-1.023-0.255l-1.403-0.509l-0.96-0.319l-0.96-0.448l-2.168-1.087l-0.833-0.575l-0.955-0.575l-0.833-0.575l-1.086-0.894
						l-0.575-0.831l-0.575-0.957l-0.38-0.957l-0.448-1.343l-0.19-0.957l-0.195-1.405l-0.127-2.044l0.063-1.021l0.127-1.535
						l0.195-0.957l0.253-0.831l0.321-0.958l0.638-1.405l0.443-0.894l0.516-0.765l0.634-0.705l1.023-0.957l0.833-0.638l0.828-0.575
						l0.896-0.448l1.213-0.702l1.915-0.767l0.96-0.319l1.466-0.255l1.023-0.19l1.915-0.256l1.408-0.256l1.018-0.129l0.96-0.063
						h1.023l1.915,0.192l0.96,0.127l0.443,0.129l1.023,0.127l2.173,0.383l1.086,0.255l1.018,0.319l1.092,0.319l1.018,0.385
						l0.96,0.446l0.955,0.385l1.218,0.702l0.892,0.448l0.833,0.575l0.575,0.573v0.641l-0.385,0.702l-0.706,1.277l-0.507,0.767
						l-2.426,3.193l-0.706,0.894l-0.765,0.638l-0.511,0.193l-0.444-0.063l-0.643-0.319l-0.955-0.575l-0.96-0.385l-0.449-0.19
						l-0.959-0.319l-0.507-0.129l-1.087-0.256l-1.466-0.319l-1.023-0.063l-1.661-0.127h-1.661l-1.087,0.063l-1.087,0.19
						l-1.023,0.322l-0.38,0.19l-0.77,0.575l-0.317,0.382l-0.448,0.894l-0.127,1.023l0.19,0.831l0.511,0.831l0.706,0.639l0.765,0.382
						l0.444,0.193l0.96,0.19l1.598,0.192l2.168,0.129l1.091,0.19l2.168,0.511l2.042,0.639l1.471,0.319l0.96,0.256l1.788,0.638
						l1.276,0.575l0.897,0.448l0.892,0.512l0.833,0.509l1.852,1.535l0.701,0.765l0.639,0.768l0.765,1.149l0.511,0.831l0.448,0.957
						l0.258,0.958l0.254,1.406l0.127,0.957L1023.791,1531.345z"/>
					<path style="fill:#FFFFFF;" d="M1071.391,1539.84l-0.511,0.511l-1.15,1.021l-0.765,0.575l-1.213,0.894l-0.77,0.512
						l-1.276,0.704l-0.829,0.445l-1.471,0.702l-0.955,0.321l-1.087,0.319l-1.086,0.19l-1.598,0.319l-2.237,0.256l-1.15,0.066
						l-1.593,0.127h-3.323l-1.087-0.063l-1.087-0.129l-1.086-0.19l-1.087-0.256l-0.955-0.319l-2.875-0.767l-1.403-0.512
						l-0.833-0.382l-1.213-0.702l-0.765-0.575l-0.833-0.575l-0.892-0.575l-1.661-1.405l-0.77-0.767l-0.702-0.831l-0.702-0.957
						l-0.575-0.894l-0.511-0.894l-0.443-0.894l-0.643-1.342l-0.955-2.682l-0.448-1.277l-0.638-1.917l-0.127-0.958l-0.063-1.469
						l0.063-0.957l0.063-1.023v-1.087l0.127-2.17l0.063-1.023l0.19-0.957l0.258-1.405l0.253-0.957l0.322-0.957l0.317-0.894
						l0.448-1.279l0.448-0.894l0.448-0.957l0.507-0.957l0.575-0.96l0.575-0.894l0.643-0.828l0.702-0.896l0.765-0.829l0.765-0.704
						l0.833-0.701l0.765-0.638l2.046-1.406l0.828-0.511l0.896-0.511l1.915-0.894l1.086-0.383l1.023-0.319l2.168-0.511l1.086-0.193
						l1.087-0.127l1.983-0.127l1.403-0.129l0.955,0.063l1.408,0.065l2.363,0.319l0.896,0.19l1.466,0.256l2.236,0.638l0.892,0.385
						l1.408,0.831l0.891,0.509l1.661,1.15l1.978,1.405l0.706,0.511l0.38,0.319l0.448,0.446l0.127,0.511l-0.063,0.511l-0.38,0.512
						l-0.575,0.701l-0.701,0.701l-0.706,0.641l-0.701,0.575l-0.702,0.701l-1.086,1.277l-0.702,0.767l-0.321,0.319l-0.575,0.512
						l-0.449,0.193l-0.444,0.063l-0.448-0.129l-0.701-0.383l-1.213-0.894l-0.833-0.448l-1.403-0.639l-0.896-0.319l-1.403-0.383
						l-0.959-0.193l-1.599-0.126h-1.018l-1.408,0.126l-1.023,0.256l-1.403,0.448l-0.955,0.382l-0.833,0.319l-1.277,0.638
						l-0.896,0.638l-0.443,0.385l-0.77,0.831l-0.575,0.894l-0.448,0.828l-0.443,0.894l-0.385,0.96l-0.322,1.021l-0.19,1.087
						l-0.127,0.957l-0.126,1.917v1.021l0.063,1.598l0.063,0.957l0.317,1.469l0.322,0.957l0.448,1.087l0.512,0.957l0.959,1.406
						l0.702,0.767l1.213,1.021l0.828,0.575l1.277,0.638l0.96,0.385l1.403,0.382l1.023,0.193l1.535,0.063h1.467l0.896-0.193
						l0.506-0.127l0.96-0.319l1.598-0.575l1.023-0.448l0.96-0.446l0.828-0.448l1.213-0.765l0.828-0.641l0.638-0.446l0.385-0.129
						l0.575,0.129l0.702,0.446l0.706,0.641l0.253,0.382l0.638,0.702l1.023,1.279l0.638,0.765l1.725,1.981l0.575,0.767l0.317,0.319
						l0.321,0.575V1539.84z"/>
					<path style="fill:#FFFFFF;" d="M1127.737,1543.864l0.195,0.894l-0.448,0.701l-0.702,0.319l-0.833,0.129h-0.892l-1.471-0.129
						l-0.955-0.063h-2.875l-3.961,0.256l-0.833-0.256l-0.38-0.511l-0.321-0.702l-1.978-5.364l-0.448-0.638l-0.575-0.129
						l-0.765-0.063l-3.834-0.255h-1.023l-4.789-0.127l-3.83-0.066h-0.96l-0.955,0.066h-2.943l-0.828,0.127l-0.512,0.319
						l-0.385,0.767l-1.467,4.344l-0.385,1.021l-0.702,0.831l-0.955,0.383l-1.023-0.063l-3.708-0.193h-1.018l-3.961,0.256
						l-0.833,0.063l-0.765-0.383l-0.512-0.701l0.063-0.831l0.132-0.511l0.38-1.021l0.896-1.981l0.38-0.957l1.598-3.579l0.385-0.894
						l1.661-3.576l0.38-0.957l1.471-3.449l0.38-0.957l1.725-3.578l0.385-0.894l2.299-5.238l1.788-3.831l0.448-1.021l1.403-2.875
						l0.448-1.023l1.213-2.938l0.385-0.957l1.15-2.619l0.316-0.702l0.639-0.385l0.959-0.19l2.938-0.129h4.98l2.943,0.063
						l1.082,0.192l0.706,0.511l0.317,0.831l0.896,2.49l0.38,0.96l1.599,3.001l0.385,0.894l1.403,3.131l0.385,0.894l1.15,3.257
						l0.38,0.894l1.408,3.064l0.385,0.894l1.403,3.131l0.38,0.894l1.282,3.194l0.385,0.894l1.978,3.961l1.53,3.001l0.449,0.894
						l1.725,4.025L1127.737,1543.864z M1106.407,1525.852l-0.254-0.831l-1.408-4.343l-0.317-0.957l-1.282-3.768l-0.316-0.831
						l-0.643-0.446l-0.829-0.193l-0.702,0.193l-0.638,0.638l-1.725,4.344l-0.385,0.957l-1.656,4.281l-0.195,0.957l0.195,0.767
						l0.701,0.319l0.891,0.127h4.025l3.001,0.193l0.833-0.256l0.507-0.511L1106.407,1525.852z"/>
					<path style="fill:#FFFFFF;" d="M1178.085,1509.565l-0.063,1.023v9.452l0.19,3.705v1.021l0.132,8.431v1.087l-0.063,0.511
						l-0.068,1.087l-0.19,3.065l0.063,3.705l-0.063,0.894l-0.253,0.765l-0.512,0.704l-0.638,0.445l-0.575,0.193l-0.896,0.063
						l-3.255,0.129l-1.023,0.063l-1.598,0.063h-1.018l-0.833-0.193l-0.765-0.319l-0.77-0.575l-0.575-0.828l-0.955-1.854
						l-0.575-0.831l-2.495-3.128l-0.634-0.767l-2.495-3.064l-0.575-0.831l-2.236-3.323l-0.575-0.765l-2.49-3.067l-0.639-0.765
						l-2.363-3.131l-0.575-0.511l-0.448,0.193l-0.19,0.765l-0.131,3.193v1.023l0.068,3.193v1.021l0.063,3.576v1.023l-0.189,3.576
						l0.058,1.023l0.385,2.553l0.063,1.023l-0.19,0.831l-0.448,0.445l-0.443,0.129l-0.77,0.127l-0.511,0.063l-1.087,0.066
						l-2.933-0.066h-1.023l-2.621,0.129h-1.023l-0.955-0.063l-0.701-0.129l-0.512-0.319l-0.258-0.446l-0.127-0.641l-0.063-0.446
						v-0.957l0.127-2.109l0.063-1.021l-0.19-3.386v-1.021l0.127-7.793l0.063-1.021l0.194-3.386l0.063-1.021v-4.409l-0.258-3.384
						v-1.023l0.258-3.383l-0.063-1.023l-0.258-3.449l-0.063-1.021v-1.469l0.063-0.957l0.131-0.959l0.127-0.702l0.19-0.448
						l0.385-0.19l0.701-0.129l1.915-0.127l1.915,0.127h4.794l0.765,0.063l0.317,0.256l0.385,0.575l2.685,2.875l0.639,0.767
						l2.363,3.065l0.638,0.767l2.363,3.13l0.639,0.765l2.299,3.194l0.575,0.767l2.427,3.064l0.638,0.768l2.299,3.193l0.512,0.445
						l0.511,0.066l0.448-0.319v-0.704l-0.448-2.682l-0.063-1.023l0.19-2.745v-1.021l-0.254-3.898v-1.02l0.254-3.898l-0.063-1.021
						l-0.19-2.363v-1.598l0.19-0.831l0.258-0.509l0.443-0.256l0.765-0.129h0.575l1.091-0.063l2.87,0.192h1.023l2.173-0.129
						l0.96,0.065l1.466,0.063l0.701,0.127l0.448,0.193l0.385,0.446l0.127,0.896l0.063,0.575l0.063,1.084l-0.127,1.98l-0.127,1.023
						L1178.085,1509.565z"/>
				</g>
			</g>
		</g>
	</g>
</g>
</svg>
