<svg width="1035" height="661" viewBox="0 0 1035 661" fill="none" xmlns="http://www.w3.org/2000/svg">
<path d="M452.064 599.061L463.952 570.828L493.671 579.744L475.345 608.472C459.891 609.661 453.385 602.694 452.064 599.061Z" fill="white" stroke="black"/>
<path d="M617.006 602.034L596.271 566.153L621.935 548.715L639.791 590.641C630.966 603.383 620.658 603.3 617.006 602.034Z" fill="white" stroke="black"/>
<path d="M561.916 350.152C543.012 332.702 476.079 333.995 444.976 336.822C439.644 333.429 411.651 356.818 398.321 368.936L515.261 432.557L587.97 572.522L632.202 556.768C616.65 495.167 580.821 367.603 561.916 350.152Z" fill="#A89EFE" stroke="black"/>
<path fill-rule="evenodd" clip-rule="evenodd" d="M509.52 350.491C485.01 345.351 457.233 346.417 439.141 348.99C438.594 349.067 438.088 348.687 438.01 348.14C437.932 347.594 438.313 347.087 438.859 347.01C457.1 344.416 485.124 343.331 509.93 348.533C534.676 353.722 556.634 365.27 561.974 388.273C572.365 433.035 598.622 521.87 610.457 560.709C610.618 561.237 610.32 561.796 609.792 561.957C609.263 562.118 608.705 561.82 608.544 561.291C596.712 522.463 570.435 433.564 560.026 388.726C554.966 366.929 534.091 355.643 509.52 350.491Z" fill="white"/>
<path d="M544.345 376.812C526.894 354.999 463.961 351.566 434.675 352.576L327.429 367.724C338.941 386.305 369.843 426.012 401.35 436.192C440.734 448.916 490.419 438.615 492.236 447.704C493.691 454.975 467.394 533.541 454.064 571.915C460.366 576.278 487.389 584.235 500.113 587.669C505.768 578.378 520.957 552.041 536.468 521.019C555.857 482.241 566.157 404.078 544.345 376.812Z" fill="#A89EFE" stroke="black"/>
<path fill-rule="evenodd" clip-rule="evenodd" d="M421.557 369.668C421.741 369.147 422.312 368.874 422.833 369.057C438.702 374.653 462.609 384.5 482.766 395.867C492.842 401.548 502.02 407.631 508.794 413.777C515.526 419.886 520.069 426.223 520.498 432.431C520.909 438.39 519.472 448.168 516.926 459.99C514.372 471.851 510.675 485.885 506.499 500.414C498.146 529.474 487.865 560.568 480.944 580.331C480.761 580.852 480.191 581.127 479.669 580.944C479.148 580.762 478.874 580.191 479.056 579.67C485.968 559.932 496.237 528.876 504.576 499.862C508.746 485.353 512.43 471.368 514.971 459.569C517.52 447.732 518.891 438.211 518.502 432.569C518.131 427.178 514.107 421.298 507.45 415.258C500.834 409.255 491.8 403.257 481.784 397.609C461.758 386.317 437.965 376.514 422.167 370.943C421.647 370.76 421.373 370.189 421.557 369.668Z" fill="white"/>
<path d="M480.119 291.379C468.97 287.016 447.198 272.595 437.705 265.93C437.099 265.325 435.524 263.992 434.07 263.507C432.616 263.022 420.942 279.059 415.287 287.137C418.114 293.196 427.89 306.163 444.37 309.556C464.971 313.797 520.715 313.191 524.35 315.009C527.986 316.827 557.069 317.433 558.281 316.827C559.493 316.221 555.252 308.95 548.587 305.315C541.922 301.679 532.227 302.891 520.715 302.285C509.203 301.679 494.055 296.832 480.119 291.379Z" fill="white" stroke="black"/>
<path d="M315.917 186.557L321.37 154.443C331.065 167.046 342.375 171.005 346.818 171.409V182.921C352.07 196.251 359.058 222.911 345.001 222.911C330.944 222.911 319.754 198.675 315.917 186.557Z" fill="white" stroke="black"/>
<path d="M281.38 214.428C290.105 197.463 308.04 187.566 315.917 184.739C326.581 220.123 341.769 224.527 348.03 222.306C357.24 217.943 351.867 195.443 348.03 184.739C354.089 184.335 368.51 184.496 377.719 188.374C389.232 193.222 408.015 222.305 418.921 241.694C427.646 257.206 437.704 263.508 439.522 266.537C429.482 265.581 423.333 283.015 419.678 293.375L419.527 293.803C399.532 277.443 392.867 252.601 398.926 271.384C404.985 290.167 440.734 329.551 443.764 333.792C446.793 338.034 426.798 388.93 409.227 381.053C391.655 373.177 366.813 385.295 332.276 381.053C297.74 376.812 292.286 356.211 281.38 329.551C270.474 302.891 270.474 235.635 281.38 214.428Z" fill="#FE7347" stroke="black" stroke-linejoin="round"/>
<path d="M347.424 299.861C345.97 299.861 338.739 295.821 335.306 293.801C311.554 296.71 303.597 318.442 302.587 328.944C310.262 330.56 327.914 334.397 337.124 336.821C348.636 339.851 403.774 320.461 412.862 316.22C421.951 311.979 423.163 313.796 428.616 315.008C434.069 316.22 438.311 314.402 441.34 311.979C444.37 309.555 455.882 313.796 461.941 316.22C468 318.644 471.03 315.008 471.03 311.979C471.03 308.949 452.246 290.166 444.37 290.166C436.493 290.166 431.04 296.225 412.862 295.619C394.685 295.013 349.242 299.861 347.424 299.861Z" fill="white" stroke="black"/>
<path d="M373.478 135.66C370.57 130.328 369.843 121.32 369.843 117.482C361.36 118.088 342.819 119.785 336.518 121.724C330.216 123.663 329.045 131.822 329.247 135.66C328.439 135.256 326.945 133.6 327.429 130.207C328.035 125.965 324.4 123.542 320.764 125.359C317.129 127.177 314.705 135.66 318.947 148.99C323.188 162.32 340.153 172.014 351.06 172.62C361.966 173.226 369.843 169.591 374.69 158.078C379.49 146.678 377.16 142.408 373.584 135.854L373.478 135.66Z" fill="white" stroke="black" stroke-linecap="round"/>
<path d="M302.587 118.694C304.041 130.813 313.696 142.325 318.341 146.566C318.341 145.355 319.31 142.932 318.341 138.084C317.13 132.025 319.553 127.784 323.795 127.784C328.036 127.784 324.401 137.479 328.642 138.69C332.372 139.756 329.248 132.025 332.883 125.966C336.519 119.907 351.061 120.513 366.208 118.694C381.356 116.876 394.08 104.759 395.292 90.8227C396.504 76.8859 386.203 65.9804 375.297 64.1627C364.39 62.3449 352.272 70.2218 349.243 78.0986C346.213 85.9754 336.518 88.399 322.582 90.8227C308.646 93.2463 300.77 103.547 302.587 118.694Z" fill="black"/>
<path d="M234.45 217.581C242.206 169.593 294.71 164.543 318.341 167.774L317.129 175.629L315.036 185.324C307.765 190.373 293.014 199.888 283.804 212.006C272.292 227.154 270.804 257.449 274.44 298.651C278.075 339.853 297.74 361.666 311.07 373.784C324.4 385.902 373.203 369.058 407.74 376.935C442.276 384.812 444.7 438.132 447.73 438.132C450.759 438.132 480.449 437.526 492.567 438.132C504.685 438.738 505.291 452.068 504.079 461.157C502.867 470.245 472.572 479.334 452.577 482.969C432.582 486.605 368.025 489.028 341.971 482.969C315.917 476.91 299.282 446.009 274.44 409.654C249.598 373.3 224.755 277.566 234.45 217.581Z" fill="#4081F4" stroke="black"/>
<path d="M331.626 660.201H320.101L341.683 489.338L341.768 483.688L376.805 485.498L331.626 660.201Z" fill="#4081F4"/>
<path d="M341.768 488.666L341.683 489.338M341.683 489.338L320.101 660.201H331.626L376.805 485.498L341.768 483.688L341.683 489.338Z" stroke="black"/>
<path d="M476.263 606.57C461.788 606.57 454.584 600.255 452.791 597.098C450.345 597.098 442.521 613.201 440.076 615.095C438.12 616.611 439.261 620.147 440.076 621.726C445.944 625.515 482.946 642.249 500.714 650.143C502.996 648.88 507.364 644.933 506.582 639.25C505.604 632.145 499.247 629.304 490.445 625.988C483.403 623.336 478.056 611.938 476.263 606.57Z" fill="#FC92C3" stroke="black"/>
<path d="M638.341 588.353C628.812 600.014 619.106 601.763 615.444 601.18C613.834 603.15 621.339 619.794 621.219 622.981C621.122 625.53 624.652 626.881 626.43 627.239C633.27 624.944 670.78 605.881 688.68 596.637C689.19 593.987 688.964 587.933 683.982 584.914C677.755 581.139 671.337 584.436 662.937 589.398C656.217 593.368 643.739 590.355 638.341 588.353Z" fill="#FC92C3" stroke="black"/>
<rect x="407.486" y="314.992" width="512.991" height="28.6322" rx="12.5" fill="#FFFAEA" stroke="black"/>
<path d="M844.122 660.202L780.133 344.125H798.642L857.872 660.202H844.122Z" fill="#FFFAEA" stroke="black"/>
<path d="M510.364 660.202L574.354 344.125H555.844L496.615 660.202H510.364Z" fill="#FFFAEA" stroke="black"/>
<path d="M597.218 304.89H493.871C488.749 305.987 489.298 312.054 490.212 314.95H607.735L678.615 203.372L667.64 202L597.218 304.89Z" fill="black" stroke="black"/>
<mask id="path-22-inside-1_1191_78" fill="white">
<path d="M165.538 163.13C165.538 146.76 160.684 130.758 151.589 117.146C142.494 103.535 129.567 92.9263 114.443 86.6617C99.3193 80.3972 82.6772 78.758 66.6216 81.9517C50.566 85.1454 35.818 93.0284 24.2425 104.604C12.667 116.179 4.78405 130.927 1.59038 146.983C-1.60328 163.039 0.0358254 179.681 6.30042 194.805C12.565 209.929 23.1737 222.856 36.785 231.95C50.3963 241.045 66.3989 245.899 82.7691 245.899V163.13H165.538Z"/>
</mask>
<path d="M165.538 163.13C165.538 146.76 160.684 130.758 151.589 117.146C142.494 103.535 129.567 92.9263 114.443 86.6617C99.3193 80.3972 82.6772 78.758 66.6216 81.9517C50.566 85.1454 35.818 93.0284 24.2425 104.604C12.667 116.179 4.78405 130.927 1.59038 146.983C-1.60328 163.039 0.0358254 179.681 6.30042 194.805C12.565 209.929 23.1737 222.856 36.785 231.95C50.3963 241.045 66.3989 245.899 82.7691 245.899V163.13H165.538Z" fill="#EBF0FF" stroke="black" stroke-width="2" mask="url(#path-22-inside-1_1191_78)"/>
<mask id="path-23-inside-2_1191_78" fill="white">
<path d="M98.9325 252.835C118.595 250.942 136.932 242.079 150.631 227.848C164.33 213.616 172.488 194.955 173.63 175.234L91 170.447L98.9325 252.835Z"/>
</mask>
<path d="M98.9325 252.835C118.595 250.942 136.932 242.079 150.631 227.848C164.33 213.616 172.488 194.955 173.63 175.234L91 170.447L98.9325 252.835Z" fill="#EBF0FF" stroke="black" stroke-width="2" mask="url(#path-23-inside-2_1191_78)"/>
<path d="M474.22 7.05684C472.582 2.68944 470.459 1.48899 469.603 1.43469C467.072 1.88918 467.787 6.4964 466.743 10.2725C462.686 27.2355 452.079 34.9651 448.756 36.3942C445.433 37.8234 440.584 42.128 449.2 43.4941C457.816 44.8603 465.795 56.4862 469.156 62.4899C472.517 68.4936 471.164 74.1473 474.159 74.2859C477.153 74.4245 476.187 72.6209 477.926 66.3256C479.665 60.0303 489.673 42.7292 494.986 39.0177C499.236 36.0485 495.637 33.5074 493.306 32.608C482.835 28.8695 476.267 12.5161 474.22 7.05684Z" fill="black"/>
<path d="M523.448 56.0406C522.511 53.5399 521.295 52.8526 520.805 52.8215C519.356 53.0817 519.765 55.7197 519.167 57.8819C516.844 67.5947 510.771 72.0205 508.868 72.8388C506.966 73.6571 504.189 76.1219 509.123 76.9041C514.056 77.6864 518.624 84.3432 520.549 87.7808C522.474 91.2185 521.699 94.4557 523.414 94.535C525.128 94.6144 524.575 93.5817 525.571 89.9771C526.567 86.3725 532.297 76.4661 535.339 74.341C537.773 72.6408 535.712 71.1859 534.377 70.6709C528.381 68.5303 524.621 59.1665 523.448 56.0406Z" fill="black"/>
<path d="M473.448 99.0406C472.511 96.5399 471.295 95.8526 470.805 95.8215C469.356 96.0817 469.765 98.7197 469.167 100.882C466.844 110.595 460.771 115.02 458.868 115.839C456.966 116.657 454.189 119.122 459.123 119.904C464.056 120.686 468.624 127.343 470.549 130.781C472.474 134.218 471.699 137.456 473.414 137.535C475.128 137.614 474.575 136.582 475.571 132.977C476.567 129.372 482.297 119.466 485.339 117.341C487.773 115.641 485.712 114.186 484.377 113.671C478.381 111.53 474.621 102.167 473.448 99.0406Z" fill="black"/>
<path d="M169.4 372.008C169.94 368.024 173.608 365.233 177.592 365.774L219.067 371.401C223.051 371.941 225.842 375.609 225.302 379.592L219.674 421.068C219.134 425.052 215.466 427.843 211.483 427.302L170.007 421.675C166.024 421.135 163.232 417.467 163.773 413.484L169.4 372.008Z" fill="#ECEAFF"/>
<path fill-rule="evenodd" clip-rule="evenodd" d="M236.815 385.288L195.34 379.661C192.02 379.211 188.964 381.537 188.513 384.857L182.886 426.332C182.436 429.652 184.762 432.708 188.081 433.159L229.557 438.786C232.877 439.236 235.933 436.91 236.383 433.59L242.011 392.115C242.461 388.795 240.135 385.739 236.815 385.288ZM195.503 378.459C191.519 377.919 187.851 380.71 187.311 384.694L181.684 426.169C181.143 430.153 183.935 433.82 187.918 434.361L229.394 439.988C233.378 440.528 237.045 437.737 237.586 433.753L243.213 392.278C243.753 388.294 240.962 384.627 236.978 384.086L195.503 378.459Z" fill="#08021C"/>
<rect x="737.5" y="58.5" width="296.671" height="183" rx="8.5" fill="#ECEAFF" stroke="black"/>
<rect x="762.033" y="77.3086" width="247.604" height="146.2" fill="#ECEAFF" stroke="black"/>
<rect x="900.591" y="121.805" width="27.8044" height="90.7733" fill="#A89EFE"/>
<rect x="855.613" y="102.994" width="27.8044" height="109.582" fill="#A89EFE"/>
<rect x="809" y="152.062" width="27.8044" height="60.5156" fill="#A89EFE"/>
<rect x="942.298" y="94" width="27.8044" height="118.578" fill="#A89EFE"/>
<path d="M976.222 437.952C976.222 447.867 984.26 455.905 994.175 455.905C1004.09 455.905 1012.13 447.867 1012.13 437.952C1012.13 428.038 1004.09 420 994.175 420C984.26 420 976.222 428.038 976.222 437.952Z" fill="#08021C"/>
<path d="M918.222 437.033C918.222 441.863 922.55 445.779 927.889 445.779C933.228 445.779 937.556 441.863 937.556 437.033C937.556 432.203 933.228 428.287 927.889 428.287C922.55 428.287 918.222 432.203 918.222 437.033Z" fill="#08021C"/>
<path d="M967.936 491.35C967.936 498.215 973.913 503.779 981.286 503.779C988.658 503.779 994.635 498.215 994.635 491.35C994.635 484.486 988.658 478.922 981.286 478.922C973.913 478.922 967.936 484.486 967.936 491.35Z" fill="#08021C"/>
<path d="M886 522.652C886 539.685 900.426 553.493 918.222 553.493C936.018 553.493 950.444 539.685 950.444 522.652C950.444 505.619 936.018 491.811 918.222 491.811C900.426 491.811 886 505.619 886 522.652Z" fill="#08021C"/>
</svg>
