<svg width="917" height="636" viewBox="0 0 917 636" fill="none" xmlns="http://www.w3.org/2000/svg">
<path d="M150.819 541.658C148.417 531.45 151.819 511.886 153.821 503.38L129.053 490.246C125.801 492.623 118.396 498.127 114.793 501.129C110.29 504.881 99.7824 516.139 94.5286 516.89C89.2749 517.641 88.1491 526.272 90.4007 528.523C92.6523 530.775 103.16 540.157 108.413 545.785C112.616 550.289 138.435 574.181 150.819 585.564C154.571 585.689 162.752 584.288 165.454 577.683C168.831 569.427 153.821 554.417 150.819 541.658Z" fill="white" stroke="black" stroke-linecap="round"/>
<path d="M332.297 562.238C323.788 556.11 313.522 539.112 309.452 531.38L282.142 537.715C281.247 541.642 279.269 550.654 278.519 555.283C277.582 561.07 277.037 576.46 273.565 580.473C270.092 584.486 274.904 591.739 278.081 591.961C281.257 592.183 295.342 592.371 303 593.173C309.126 593.814 344.286 594.909 361.1 595.376C364.015 593.009 369.27 586.584 366.976 579.827C364.109 571.38 342.933 569.899 332.297 562.238Z" fill="white" stroke="black" stroke-linecap="round"/>
<path d="M259.646 379.166C263.849 370.16 253.391 298.609 247.637 263.959L318.938 257.955C322.941 277.719 331.247 324.302 332.447 352.522C333.948 387.797 323.066 468.479 322.315 492.121C321.565 515.763 318.563 522.142 318.938 531.524C319.238 539.029 292.544 541.156 279.16 541.281C275.532 525.27 267.526 489.419 264.524 474.108C260.772 454.97 254.392 390.424 259.646 379.166Z" fill="#4081F4" stroke="black" stroke-linecap="round"/>
<path fill-rule="evenodd" clip-rule="evenodd" d="M300.431 329.076C296.959 306.344 292.012 283.609 288.515 269.621L289.485 269.379C292.988 283.391 297.942 306.157 301.419 328.925C304.894 351.67 306.908 374.495 304.493 388.585C302.102 402.531 301.6 430.317 301.95 459.432C302.3 488.528 303.5 518.896 304.5 537.974L303.501 538.026C302.501 518.938 301.3 488.556 300.95 459.444C300.6 430.35 301.098 402.469 303.507 388.416C305.892 374.505 303.907 351.83 300.431 329.076Z" fill="white"/>
<path fill-rule="evenodd" clip-rule="evenodd" d="M295.431 329.576C291.959 306.844 287.012 284.109 283.515 270.121L284.485 269.879C287.988 283.891 292.942 306.657 296.419 329.425C299.894 352.17 301.908 374.995 299.493 389.085C297.102 403.031 296.6 430.817 296.95 459.932C297.3 489.028 298.5 519.396 299.5 538.474L298.501 538.526C297.501 519.438 296.3 489.056 295.95 459.944C295.6 430.85 296.098 402.969 298.507 388.916C300.892 375.005 298.907 352.33 295.431 329.576Z" fill="white"/>
<path d="M204.481 336.387C190.071 306.366 184.968 276.845 184.217 265.837L267.151 253.078C272.279 274.718 281.711 321.677 278.409 336.387C274.281 354.775 184.217 479.364 172.208 489.871C160.2 500.379 163.202 499.253 160.2 504.131C157.198 509.01 132.43 495.875 127.552 489.871C122.725 483.93 128.92 472.845 135.958 460.252L136.183 459.85C143.313 447.091 169.582 366.033 190.972 353.274C208.084 343.067 207.108 337.763 204.481 336.387Z" fill="#4081F4" stroke="black" stroke-linecap="round"/>
<path fill-rule="evenodd" clip-rule="evenodd" d="M230.499 269.475C230.999 279.304 232.499 304.062 234.498 324.451C235.765 337.373 230.564 349.244 222.6 360.907C217.208 368.805 210.51 376.658 203.648 384.703C200.391 388.523 197.096 392.385 193.887 396.316C185.924 406.072 175.111 424.82 164.817 444.333C154.531 463.832 144.785 484.049 138.954 496.709L138.046 496.291C143.882 483.618 153.636 463.384 163.933 443.867C174.222 424.363 185.077 405.528 193.113 395.684C196.354 391.713 199.666 387.83 202.932 384.001C209.774 375.98 216.412 368.197 221.775 360.343C229.686 348.756 234.736 337.127 233.502 324.549C231.501 304.138 230.001 279.363 229.501 269.525L230.499 269.475Z" fill="white"/>
<path fill-rule="evenodd" clip-rule="evenodd" d="M236.299 268.975C236.8 278.977 238.304 304.172 240.31 324.921C241.58 338.065 236.365 350.141 228.376 362.01C222.966 370.046 216.246 378.037 209.363 386.224C206.094 390.111 202.789 394.042 199.569 398.042C191.579 407.971 180.731 427.05 170.403 446.907C160.083 466.75 150.305 487.323 144.455 500.206L143.545 499.793C149.4 486.897 159.186 466.307 169.516 446.446C179.839 426.598 190.729 407.432 198.79 397.415C202.042 393.375 205.365 389.423 208.642 385.527C215.505 377.364 222.166 369.443 227.546 361.451C235.484 349.66 240.552 337.822 239.315 325.017C237.307 304.247 235.802 279.035 235.3 269.025L236.299 268.975Z" fill="white"/>
<path d="M357.215 73.7001C362.712 65.3687 375.098 48.1 380.669 45.6763C387.631 42.6467 407.054 40.3745 405.955 44.1615C404.855 47.9485 389.464 51.3568 390.93 52.4929C392.395 53.629 400.091 50.9781 398.259 57.0373C399.969 57.416 403.389 59.158 403.389 63.0965C403.389 68.0196 399.358 73.3214 396.793 72.1853C394.741 71.2764 396.915 66.5048 398.259 64.2326C396.182 67.2622 391.809 72.564 390.93 69.5344C390.05 66.5048 392.762 62.9702 394.228 61.5817C392.273 63.8539 388.144 67.8681 387.265 65.7474C386.385 63.6267 388.364 59.057 389.464 57.0373" stroke="black" stroke-linecap="round"/>
<path d="M372.977 54.873C377.98 52.9967 388.287 50.595 389.488 55.9988C389.363 56.9994 388.287 58.9255 384.985 58.6253H381.983C383.734 60.5016 386.186 65.0799 381.983 68.3822" stroke="black" stroke-linecap="round"/>
<path d="M396.993 66.9453C395.867 67.4457 393.616 68.8967 393.616 70.698C393.616 72.9496 386.486 79.3291 383.483 80.0796C381.082 80.6801 376.479 83.0818 374.477 84.2076L357.215 68.8216" stroke="black" stroke-linecap="round"/>
<path d="M318.563 114.606C300.162 102.509 267.151 84.136 258.967 92.3442L252.891 96.6644L284.138 153.258C293.975 151.674 321.46 155.154 329.445 151.007C337.431 146.859 361.481 101.835 377.104 83.834L358.341 67.3223L318.563 114.606Z" fill="#FC92C3" stroke="black"/>
<path d="M279.032 103.009C279.34 101.519 281.728 103.381 282.884 104.499C281.343 103.009 280.573 100.402 281.343 100.028C281.96 99.729 283.141 101.891 283.654 103.009C283.526 101.891 283.5 99.7299 284.425 100.028C285.349 100.326 285.067 102.636 284.81 103.754C285.58 103.009 287.275 101.742 287.891 102.636C288.508 103.53 286.351 104.499 285.195 104.871C286.222 104.747 288.2 104.797 287.891 105.989C287.583 107.181 285.709 106.485 284.81 105.989C285.709 106.61 287.275 107.926 286.351 108.224C285.426 108.522 284.168 107.106 283.654 106.361C283.911 107.355 284.117 109.267 282.884 108.969C281.651 108.671 282.114 106.858 282.499 105.989C281.729 106.858 280.034 108.373 279.418 107.479C278.801 106.585 280.701 105.616 281.728 105.244C280.701 105.12 278.724 104.499 279.032 103.009Z" fill="#FFFEFE"/>
<path d="M288.032 123.009C288.34 121.519 290.728 123.381 291.884 124.499C290.343 123.009 289.573 120.402 290.343 120.028C290.96 119.729 292.141 121.891 292.654 123.009C292.526 121.891 292.5 119.73 293.425 120.028C294.349 120.326 294.067 122.636 293.81 123.754C294.58 123.009 296.275 121.742 296.891 122.636C297.508 123.53 295.351 124.499 294.195 124.871C295.222 124.747 297.2 124.797 296.891 125.989C296.583 127.181 294.709 126.485 293.81 125.989C294.709 126.61 296.275 127.926 295.351 128.224C294.426 128.522 293.168 127.106 292.654 126.361C292.911 127.355 293.117 129.267 291.884 128.969C290.651 128.671 291.114 126.858 291.499 125.989C290.729 126.858 289.034 128.373 288.418 127.479C287.801 126.585 289.701 125.616 290.728 125.244C289.701 125.12 287.724 124.499 288.032 123.009Z" fill="#FFFEFE"/>
<path d="M315.032 123.009C315.34 121.519 317.728 123.381 318.884 124.499C317.343 123.009 316.573 120.402 317.343 120.028C317.96 119.729 319.141 121.891 319.654 123.009C319.526 121.891 319.5 119.73 320.425 120.028C321.349 120.326 321.067 122.636 320.81 123.754C321.58 123.009 323.275 121.742 323.891 122.636C324.508 123.53 322.351 124.499 321.195 124.871C322.222 124.747 324.2 124.797 323.891 125.989C323.583 127.181 321.709 126.485 320.81 125.989C321.709 126.61 323.275 127.926 322.351 128.224C321.426 128.522 320.168 127.106 319.654 126.361C319.911 127.355 320.117 129.267 318.884 128.969C317.651 128.671 318.114 126.858 318.499 125.989C317.729 126.858 316.034 128.373 315.418 127.479C314.801 126.585 316.701 125.616 317.728 125.244C316.701 125.12 314.724 124.499 315.032 123.009Z" fill="#FFFEFE"/>
<path d="M305.032 142.009C305.34 140.519 307.728 142.381 308.884 143.499C307.343 142.009 306.573 139.402 307.343 139.028C307.96 138.729 309.141 140.891 309.654 142.009C309.526 140.891 309.5 138.73 310.425 139.028C311.349 139.326 311.067 141.636 310.81 142.754C311.58 142.009 313.275 140.742 313.891 141.636C314.508 142.53 312.351 143.499 311.195 143.871C312.222 143.747 314.2 143.797 313.891 144.989C313.583 146.181 311.709 145.485 310.81 144.989C311.709 145.61 313.275 146.926 312.351 147.224C311.426 147.522 310.168 146.106 309.654 145.361C309.911 146.355 310.117 148.267 308.884 147.969C307.651 147.671 308.114 145.858 308.499 144.989C307.729 145.858 306.034 147.373 305.418 146.479C304.801 145.585 306.701 144.616 307.728 144.244C306.701 144.12 304.724 143.499 305.032 142.009Z" fill="#FFFEFE"/>
<path d="M324.032 142.009C324.34 140.519 326.728 142.381 327.884 143.499C326.343 142.009 325.573 139.402 326.343 139.028C326.96 138.729 328.141 140.891 328.654 142.009C328.526 140.891 328.5 138.73 329.425 139.028C330.349 139.326 330.067 141.636 329.81 142.754C330.58 142.009 332.275 140.742 332.891 141.636C333.508 142.53 331.351 143.499 330.195 143.871C331.222 143.747 333.2 143.797 332.891 144.989C332.583 146.181 330.709 145.485 329.81 144.989C330.709 145.61 332.275 146.926 331.351 147.224C330.426 147.522 329.168 146.106 328.654 145.361C328.911 146.355 329.117 148.267 327.884 147.969C326.651 147.671 327.114 145.858 327.499 144.989C326.729 145.858 325.034 147.373 324.418 146.479C323.801 145.585 325.701 144.616 326.728 144.244C325.701 144.12 323.724 143.499 324.032 142.009Z" fill="#FFFEFE"/>
<path d="M336.032 103.009C336.34 101.519 338.728 103.381 339.884 104.499C338.343 103.009 337.573 100.402 338.343 100.028C338.96 99.729 340.141 101.891 340.654 103.009C340.526 101.891 340.5 99.7299 341.425 100.028C342.349 100.326 342.067 102.636 341.81 103.754C342.58 103.009 344.275 101.742 344.891 102.636C345.508 103.53 343.351 104.499 342.195 104.871C343.222 104.747 345.2 104.797 344.891 105.989C344.583 107.181 342.709 106.485 341.81 105.989C342.709 106.61 344.275 107.926 343.351 108.224C342.426 108.522 341.168 107.106 340.654 106.361C340.911 107.355 341.117 109.267 339.884 108.969C338.651 108.671 339.114 106.858 339.499 105.989C338.729 106.858 337.034 108.373 336.418 107.479C335.801 106.585 337.701 105.616 338.728 105.244C337.701 105.12 335.724 104.499 336.032 103.009Z" fill="#FFFEFE"/>
<path d="M333.032 124.009C333.34 122.519 335.728 124.381 336.884 125.499C335.343 124.009 334.573 121.402 335.343 121.028C335.96 120.729 337.141 122.891 337.654 124.009C337.526 122.891 337.5 120.73 338.425 121.028C339.349 121.326 339.067 123.636 338.81 124.754C339.58 124.009 341.275 122.742 341.891 123.636C342.508 124.53 340.351 125.499 339.195 125.871C340.222 125.747 342.2 125.797 341.891 126.989C341.583 128.181 339.709 127.485 338.81 126.989C339.709 127.61 341.275 128.926 340.351 129.224C339.426 129.522 338.168 128.106 337.654 127.361C337.911 128.355 338.117 130.267 336.884 129.969C335.651 129.671 336.114 127.858 336.499 126.989C335.729 127.858 334.034 129.373 333.418 128.479C332.801 127.585 334.701 126.616 335.728 126.244C334.701 126.12 332.724 125.499 333.032 124.009Z" fill="#FFFEFE"/>
<path d="M352.032 78.0087C352.34 76.5186 354.728 78.3812 355.884 79.4987C354.343 78.0088 353.573 75.4016 354.343 75.0279C354.96 74.729 356.141 76.8905 356.654 78.0087C356.526 76.8909 356.5 74.7299 357.425 75.0279C358.349 75.3259 358.067 77.6359 357.81 78.7536C358.58 78.0085 360.275 76.742 360.891 77.636C361.508 78.5301 359.351 79.4986 358.195 79.8711C359.222 79.747 361.2 79.7967 360.891 80.9887C360.583 82.1806 358.709 81.4853 357.81 80.9887C358.709 81.6095 360.275 82.9258 359.351 83.2238C358.426 83.5218 357.168 82.1062 356.654 81.3612C356.911 82.3546 357.117 84.2668 355.884 83.9688C354.651 83.6708 355.114 81.8579 355.499 80.9887C354.729 81.8579 353.034 83.3728 352.418 82.4788C351.801 81.5847 353.701 80.6162 354.728 80.2436C353.701 80.1195 351.724 79.4987 352.032 78.0087Z" fill="#FFFEFE"/>
<path d="M352.032 98.0087C352.34 96.5186 354.728 98.3812 355.884 99.4987C354.343 98.0088 353.573 95.4016 354.343 95.0279C354.96 94.729 356.141 96.8905 356.654 98.0087C356.526 96.8909 356.5 94.7299 357.425 95.0279C358.349 95.3259 358.067 97.6359 357.81 98.7536C358.58 98.0085 360.275 96.742 360.891 97.636C361.508 98.5301 359.351 99.4986 358.195 99.8711C359.222 99.747 361.2 99.7967 360.891 100.989C360.583 102.181 358.709 101.485 357.81 100.989C358.709 101.61 360.275 102.926 359.351 103.224C358.426 103.522 357.168 102.106 356.654 101.361C356.911 102.355 357.117 104.267 355.884 103.969C354.651 103.671 355.114 101.858 355.499 100.989C354.729 101.858 353.034 103.373 352.418 102.479C351.801 101.585 353.701 100.616 354.728 100.244C353.701 100.12 351.724 99.4987 352.032 98.0087Z" fill="#FFFEFE"/>
<path d="M263.399 79.7046C267.301 78.5038 265.025 87.7103 263.399 92.4637C272.705 92.4637 289.292 125.487 296.422 141.999C306.179 180.026 325.768 257.731 326.068 264.336C326.443 272.591 275.782 269.965 251.765 269.965C227.748 269.965 188.345 275.969 180.84 272.591C174.836 269.89 183.592 243.696 191.347 230.186C192 229.5 203.806 203.017 196.601 190.408C187.595 174.647 181.591 169.393 193.224 141.999C202.53 120.083 215.615 108.35 220.994 105.223C217.491 102.096 210.711 95.1656 211.612 92.4637C212.738 89.0862 258.52 81.2057 263.399 79.7046Z" fill="#FC92C3" stroke="black"/>
<path d="M209 253.999C209.4 251.999 212.5 254.499 214 255.999C212 253.999 211 250.5 212 249.998C212.8 249.597 214.333 252.498 215 253.999C214.833 252.499 214.8 249.598 216 249.998C217.2 250.398 216.833 253.499 216.5 254.999C217.5 253.999 219.7 252.299 220.5 253.499C221.3 254.699 218.5 255.999 217 256.499C218.333 256.332 220.9 256.399 220.5 257.999C220.1 259.599 217.667 258.666 216.5 257.999C217.667 258.832 219.7 260.599 218.5 260.999C217.3 261.399 215.667 259.499 215 258.499C215.333 259.832 215.6 262.399 214 261.999C212.4 261.599 213 259.166 213.5 257.999C212.5 259.166 210.3 261.199 209.5 259.999C208.7 258.799 211.167 257.499 212.5 256.999C211.167 256.832 208.6 255.999 209 253.999Z" fill="#FFFEFE"/>
<path d="M199.042 227.038C199.442 225.038 202.542 227.538 204.042 229.038C202.042 227.038 201.042 223.539 202.042 223.037C202.842 222.636 204.375 225.537 205.042 227.038C204.875 225.538 204.842 222.637 206.042 223.037C207.242 223.437 206.875 226.538 206.542 228.038C207.542 227.038 209.742 225.338 210.542 226.538C211.342 227.738 208.542 229.038 207.042 229.538C208.375 229.371 210.942 229.438 210.542 231.038C210.142 232.638 207.709 231.705 206.542 231.038C207.709 231.871 209.742 233.638 208.542 234.038C207.342 234.438 205.709 232.538 205.042 231.538C205.375 232.871 205.642 235.438 204.042 235.038C202.442 234.638 203.042 232.205 203.542 231.038C202.542 232.205 200.342 234.238 199.542 233.038C198.742 231.838 201.209 230.538 202.542 230.038C201.209 229.871 198.642 229.038 199.042 227.038Z" fill="#FFFEFE"/>
<path d="M184.042 256.038C184.442 254.038 187.542 256.538 189.042 258.038C187.042 256.038 186.042 252.539 187.042 252.037C187.842 251.636 189.375 254.537 190.042 256.038C189.875 254.538 189.842 251.637 191.042 252.037C192.242 252.437 191.875 255.538 191.542 257.038C192.542 256.038 194.742 254.338 195.542 255.538C196.342 256.738 193.542 258.038 192.042 258.538C193.375 258.371 195.942 258.438 195.542 260.038C195.142 261.638 192.709 260.705 191.542 260.038C192.709 260.871 194.742 262.638 193.542 263.038C192.342 263.438 190.709 261.538 190.042 260.538C190.375 261.871 190.642 264.438 189.042 264.038C187.442 263.638 188.042 261.205 188.542 260.038C187.542 261.205 185.342 263.238 184.542 262.038C183.742 260.838 186.209 259.538 187.542 259.038C186.209 258.871 183.642 258.038 184.042 256.038Z" fill="#FFFEFE"/>
<path d="M259.042 256.038C259.442 254.038 262.542 256.538 264.042 258.038C262.042 256.038 261.042 252.539 262.042 252.037C262.842 251.636 264.375 254.537 265.042 256.038C264.875 254.538 264.842 251.637 266.042 252.037C267.242 252.437 266.875 255.538 266.542 257.038C267.542 256.038 269.742 254.338 270.542 255.538C271.342 256.738 268.542 258.038 267.042 258.538C268.375 258.371 270.942 258.438 270.542 260.038C270.142 261.638 267.709 260.705 266.542 260.038C267.709 260.871 269.742 262.638 268.542 263.038C267.342 263.438 265.709 261.538 265.042 260.538C265.375 261.871 265.642 264.438 264.042 264.038C262.442 263.638 263.042 261.205 263.542 260.038C262.542 261.205 260.342 263.238 259.542 262.038C258.742 260.838 261.209 259.538 262.542 259.038C261.209 258.871 258.642 258.038 259.042 256.038Z" fill="#FFFEFE"/>
<path d="M233.042 224.038C233.442 222.038 236.542 224.538 238.042 226.038C236.042 224.038 235.042 220.539 236.042 220.037C236.842 219.636 238.375 222.537 239.042 224.038C238.875 222.538 238.842 219.637 240.042 220.037C241.242 220.437 240.875 223.538 240.542 225.038C241.542 224.038 243.742 222.338 244.542 223.538C245.342 224.738 242.542 226.038 241.042 226.538C242.375 226.371 244.942 226.438 244.542 228.038C244.142 229.638 241.709 228.705 240.542 228.038C241.709 228.871 243.742 230.638 242.542 231.038C241.342 231.438 239.709 229.538 239.042 228.538C239.375 229.871 239.642 232.438 238.042 232.038C236.442 231.638 237.042 229.205 237.542 228.038C236.542 229.205 234.342 231.238 233.542 230.038C232.742 228.838 235.209 227.538 236.542 227.038C235.209 226.871 232.642 226.038 233.042 224.038Z" fill="#FFFEFE"/>
<path d="M270.042 224.038C270.442 222.038 273.542 224.538 275.042 226.038C273.042 224.038 272.042 220.539 273.042 220.037C273.842 219.636 275.375 222.537 276.042 224.038C275.875 222.538 275.842 219.637 277.042 220.037C278.242 220.437 277.875 223.538 277.542 225.038C278.542 224.038 280.742 222.338 281.542 223.538C282.342 224.738 279.542 226.038 278.042 226.538C279.375 226.371 281.942 226.438 281.542 228.038C281.142 229.638 278.709 228.705 277.542 228.038C278.709 228.871 280.742 230.638 279.542 231.038C278.342 231.438 276.709 229.538 276.042 228.538C276.375 229.871 276.642 232.438 275.042 232.038C273.442 231.638 274.042 229.205 274.542 228.038C273.542 229.205 271.342 231.238 270.542 230.038C269.742 228.838 272.209 227.538 273.542 227.038C272.209 226.871 269.642 226.038 270.042 224.038Z" fill="#FFFEFE"/>
<path d="M301.042 256.038C301.442 254.038 304.542 256.538 306.042 258.038C304.042 256.038 303.042 252.539 304.042 252.037C304.842 251.636 306.375 254.537 307.042 256.038C306.875 254.538 306.842 251.637 308.042 252.037C309.242 252.437 308.875 255.538 308.542 257.038C309.542 256.038 311.742 254.338 312.542 255.538C313.342 256.738 310.542 258.038 309.042 258.538C310.375 258.371 312.942 258.438 312.542 260.038C312.142 261.638 309.709 260.705 308.542 260.038C309.709 260.871 311.742 262.638 310.542 263.038C309.342 263.438 307.709 261.538 307.042 260.538C307.375 261.871 307.642 264.438 306.042 264.038C304.442 263.638 305.042 261.205 305.542 260.038C304.542 261.205 302.342 263.238 301.542 262.038C300.742 260.838 303.209 259.538 304.542 259.038C303.209 258.871 300.642 258.038 301.042 256.038Z" fill="#FFFEFE"/>
<path d="M214.042 203.038C214.442 201.038 217.542 203.538 219.042 205.038C217.042 203.038 216.042 199.539 217.042 199.037C217.842 198.636 219.375 201.537 220.042 203.038C219.875 201.538 219.842 198.637 221.042 199.037C222.242 199.437 221.875 202.538 221.542 204.038C222.542 203.038 224.742 201.338 225.542 202.538C226.342 203.738 223.542 205.038 222.042 205.538C223.375 205.371 225.942 205.438 225.542 207.038C225.142 208.638 222.709 207.705 221.542 207.038C222.709 207.871 224.742 209.638 223.542 210.038C222.342 210.438 220.709 208.538 220.042 207.538C220.375 208.871 220.642 211.438 219.042 211.038C217.442 210.638 218.042 208.205 218.542 207.038C217.542 208.205 215.342 210.238 214.542 209.038C213.742 207.838 216.209 206.538 217.542 206.038C216.209 205.871 213.642 205.038 214.042 203.038Z" fill="#FFFEFE"/>
<path d="M249.042 194.038C249.442 192.038 252.542 194.538 254.042 196.038C252.042 194.038 251.042 190.539 252.042 190.037C252.842 189.636 254.375 192.537 255.042 194.038C254.875 192.538 254.842 189.637 256.042 190.037C257.242 190.437 256.875 193.538 256.542 195.038C257.542 194.038 259.742 192.338 260.542 193.538C261.342 194.738 258.542 196.038 257.042 196.538C258.375 196.371 260.942 196.438 260.542 198.038C260.142 199.638 257.709 198.705 256.542 198.038C257.709 198.871 259.742 200.638 258.542 201.038C257.342 201.438 255.709 199.538 255.042 198.538C255.375 199.871 255.642 202.438 254.042 202.038C252.442 201.638 253.042 199.205 253.542 198.038C252.542 199.205 250.342 201.238 249.542 200.038C248.742 198.838 251.209 197.538 252.542 197.038C251.209 196.871 248.642 196.038 249.042 194.038Z" fill="#FFFEFE"/>
<path d="M279.042 190.038C279.442 188.038 282.542 190.538 284.042 192.038C282.042 190.038 281.042 186.539 282.042 186.037C282.842 185.636 284.375 188.537 285.042 190.038C284.875 188.538 284.842 185.637 286.042 186.037C287.242 186.437 286.875 189.538 286.542 191.038C287.542 190.038 289.742 188.338 290.542 189.538C291.342 190.738 288.542 192.038 287.042 192.538C288.375 192.371 290.942 192.438 290.542 194.038C290.142 195.638 287.709 194.705 286.542 194.038C287.709 194.871 289.742 196.638 288.542 197.038C287.342 197.438 285.709 195.538 285.042 194.538C285.375 195.871 285.642 198.438 284.042 198.038C282.442 197.638 283.042 195.205 283.542 194.038C282.542 195.205 280.342 197.238 279.542 196.038C278.742 194.838 281.209 193.538 282.542 193.038C281.209 192.871 278.642 192.038 279.042 190.038Z" fill="#FFFEFE"/>
<path d="M299.042 217.038C299.442 215.038 302.542 217.538 304.042 219.038C302.042 217.038 301.042 213.539 302.042 213.037C302.842 212.636 304.375 215.537 305.042 217.038C304.875 215.538 304.842 212.637 306.042 213.037C307.242 213.437 306.875 216.538 306.542 218.038C307.542 217.038 309.742 215.338 310.542 216.538C311.342 217.738 308.542 219.038 307.042 219.538C308.375 219.371 310.942 219.438 310.542 221.038C310.142 222.638 307.709 221.705 306.542 221.038C307.709 221.871 309.742 223.638 308.542 224.038C307.342 224.438 305.709 222.538 305.042 221.538C305.375 222.871 305.642 225.438 304.042 225.038C302.442 224.638 303.042 222.205 303.542 221.038C302.542 222.205 300.342 224.238 299.542 223.038C298.742 221.838 301.209 220.538 302.542 220.038C301.209 219.871 298.642 219.038 299.042 217.038Z" fill="#FFFEFE"/>
<path d="M233.042 143.038C233.442 141.038 236.542 143.538 238.042 145.038C236.042 143.038 235.042 139.539 236.042 139.037C236.842 138.636 238.375 141.537 239.042 143.038C238.875 141.538 238.842 138.637 240.042 139.037C241.242 139.437 240.875 142.538 240.542 144.038C241.542 143.038 243.742 141.338 244.542 142.538C245.342 143.738 242.542 145.038 241.042 145.538C242.375 145.371 244.942 145.438 244.542 147.038C244.142 148.638 241.709 147.705 240.542 147.038C241.709 147.871 243.742 149.638 242.542 150.038C241.342 150.438 239.709 148.538 239.042 147.538C239.375 148.871 239.642 151.438 238.042 151.038C236.442 150.638 237.042 148.205 237.542 147.038C236.542 148.205 234.342 150.238 233.542 149.038C232.742 147.838 235.209 146.538 236.542 146.038C235.209 145.871 232.642 145.038 233.042 143.038Z" fill="#FFFEFE"/>
<path d="M276.042 156.038C276.442 154.038 279.542 156.538 281.042 158.038C279.042 156.038 278.042 152.539 279.042 152.037C279.842 151.636 281.375 154.537 282.042 156.038C281.875 154.538 281.842 151.637 283.042 152.037C284.242 152.437 283.875 155.538 283.542 157.038C284.542 156.038 286.742 154.338 287.542 155.538C288.342 156.738 285.542 158.038 284.042 158.538C285.375 158.371 287.942 158.438 287.542 160.038C287.142 161.638 284.709 160.705 283.542 160.038C284.709 160.871 286.742 162.638 285.542 163.038C284.342 163.438 282.709 161.538 282.042 160.538C282.375 161.871 282.642 164.438 281.042 164.038C279.442 163.638 280.042 161.205 280.542 160.038C279.542 161.205 277.342 163.238 276.542 162.038C275.742 160.838 278.209 159.538 279.542 159.038C278.209 158.871 275.642 158.038 276.042 156.038Z" fill="#FFFEFE"/>
<path d="M252.042 118.038C252.442 116.038 255.542 118.538 257.042 120.038C255.042 118.038 254.042 114.539 255.042 114.037C255.842 113.636 257.375 116.537 258.042 118.038C257.875 116.538 257.842 113.637 259.042 114.037C260.242 114.437 259.875 117.538 259.542 119.038C260.542 118.038 262.742 116.338 263.542 117.538C264.342 118.738 261.542 120.038 260.042 120.538C261.375 120.371 263.942 120.438 263.542 122.038C263.142 123.638 260.709 122.705 259.542 122.038C260.709 122.871 262.742 124.638 261.542 125.038C260.342 125.438 258.709 123.538 258.042 122.538C258.375 123.871 258.642 126.438 257.042 126.038C255.442 125.638 256.042 123.205 256.542 122.038C255.542 123.205 253.342 125.238 252.542 124.038C251.742 122.838 254.209 121.538 255.542 121.038C254.209 120.871 251.642 120.038 252.042 118.038Z" fill="#FFFEFE"/>
<path d="M236.042 92.0383C236.442 90.0383 239.542 92.5383 241.042 94.0383C239.042 92.0385 238.042 88.5391 239.042 88.0375C239.842 87.6362 241.375 90.5375 242.042 92.0383C241.875 90.538 241.842 87.6375 243.042 88.0375C244.242 88.4375 243.875 91.5379 243.542 93.0381C244.542 92.0381 246.742 90.3381 247.542 91.5381C248.342 92.7381 245.542 94.0381 244.042 94.5381C245.375 94.3715 247.942 94.4382 247.542 96.0381C247.142 97.638 244.709 96.7047 243.542 96.0381C244.709 96.8714 246.742 98.6381 245.542 99.0381C244.342 99.4381 242.709 97.5381 242.042 96.5381C242.375 97.8714 242.642 100.438 241.042 100.038C239.442 99.6381 240.042 97.2048 240.542 96.0381C239.542 97.2048 237.342 99.2381 236.542 98.0381C235.742 96.8381 238.209 95.5381 239.542 95.0381C238.209 94.8715 235.642 94.0383 236.042 92.0383Z" fill="#FFFEFE"/>
<path d="M276.042 130.038C276.442 128.038 279.542 130.538 281.042 132.038C279.042 130.038 278.042 126.539 279.042 126.037C279.842 125.636 281.375 128.537 282.042 130.038C281.875 128.538 281.842 125.637 283.042 126.037C284.242 126.437 283.875 129.538 283.542 131.038C284.542 130.038 286.742 128.338 287.542 129.538C288.342 130.738 285.542 132.038 284.042 132.538C285.375 132.371 287.942 132.438 287.542 134.038C287.142 135.638 284.709 134.705 283.542 134.038C284.709 134.871 286.742 136.638 285.542 137.038C284.342 137.438 282.709 135.538 282.042 134.538C282.375 135.871 282.642 138.438 281.042 138.038C279.442 137.638 280.042 135.205 280.542 134.038C279.542 135.205 277.342 137.238 276.542 136.038C275.742 134.838 278.209 133.538 279.542 133.038C278.209 132.871 275.642 132.038 276.042 130.038Z" fill="#FFFEFE"/>
<path d="M236.673 163.261C238.924 162.386 243.728 160.109 244.928 158.008C246.429 155.381 251.683 147.125 256.937 145.999C261.14 145.098 262.941 146.875 263.316 147.875C263.191 148.251 262.641 149.002 261.44 149.002C259.939 149.002 255.811 151.629 257.312 151.629C258.813 151.629 264.067 147.875 268.57 147.875C273.073 147.875 275.325 149.377 275.325 150.128C275.325 150.878 274.95 152.379 273.449 152.379C271.948 152.379 270.446 151.629 268.57 152.379C266.694 153.13 263.692 154.256 264.442 154.631C265.193 155.006 274.574 152.754 275.7 154.256C276.826 155.757 276.451 158.008 274.95 157.633C273.749 157.333 267.945 158.759 265.193 159.509C268.445 159.134 275.1 158.609 275.7 159.509C276.451 160.635 276.451 161.761 274.95 162.136C273.905 162.397 269.378 163.056 266.406 163.47C269.866 163.043 275.167 162.789 275.7 164.388C276.451 166.639 274.95 168.516 274.199 167.765C273.449 167.015 273.073 165.889 271.572 166.264C270.071 166.639 267.444 170.392 258.813 170.767C251.908 171.067 244.928 174.895 242.302 176.772C239.8 172.536 235.171 163.905 236.673 163.261Z" fill="white"/>
<path fill-rule="evenodd" clip-rule="evenodd" d="M262.765 147.871C262.337 147.095 260.765 145.689 257.042 146.487C254.591 147.012 252.058 149.237 249.906 151.763C247.775 154.265 246.104 156.957 245.362 158.254C245.016 158.86 244.435 159.443 243.76 159.981C243.08 160.525 242.274 161.048 241.444 161.526C239.81 162.469 238.05 163.258 236.903 163.707C236.895 163.732 236.884 163.781 236.88 163.872C236.871 164.101 236.923 164.449 237.05 164.916C237.3 165.84 237.801 167.08 238.44 168.458C239.622 171.011 241.237 173.955 242.46 176.052C245.409 174.067 252.115 170.557 258.791 170.266C263.031 170.082 265.772 169.071 267.63 168.074C268.543 167.584 269.249 167.095 269.834 166.689L269.874 166.661C270.167 166.458 270.441 166.269 270.69 166.12C270.937 165.972 271.192 165.843 271.451 165.778C271.889 165.668 272.279 165.66 272.632 165.748C272.985 165.837 273.265 166.012 273.496 166.215C273.721 166.412 273.911 166.644 274.074 166.848C274.09 166.868 274.106 166.888 274.122 166.908C274.273 167.097 274.405 167.262 274.553 167.41C274.566 167.424 274.575 167.429 274.578 167.43C274.579 167.431 274.58 167.431 274.58 167.431C274.581 167.432 274.581 167.432 274.582 167.432C274.582 167.432 274.587 167.433 274.598 167.431C274.609 167.429 274.627 167.424 274.651 167.413C274.757 167.366 274.923 167.226 275.078 166.953C275.383 166.421 275.556 165.536 275.226 164.545C275.174 164.39 274.959 164.172 274.361 163.986C273.795 163.81 273.024 163.708 272.128 163.667C270.345 163.586 268.188 163.753 266.472 163.964C266.028 164.026 265.618 164.083 265.26 164.131C264.988 164.168 264.737 163.979 264.698 163.708C264.659 163.436 264.845 163.183 265.117 163.142C265.487 163.085 265.899 163.027 266.341 162.973C269.333 162.556 273.818 161.902 274.828 161.65C275.462 161.491 275.635 161.222 275.679 161.005C275.734 160.731 275.633 160.315 275.296 159.804C275.29 159.801 275.235 159.762 275.071 159.714C274.868 159.656 274.581 159.608 274.216 159.573C273.487 159.504 272.522 159.497 271.456 159.529C269.33 159.594 266.868 159.818 265.25 160.005C264.99 160.035 264.751 159.859 264.702 159.603C264.652 159.346 264.809 159.094 265.061 159.026C266.443 158.649 268.592 158.102 270.549 157.687C271.527 157.479 272.464 157.303 273.238 157.197C273.624 157.145 273.977 157.108 274.278 157.096C274.567 157.084 274.848 157.091 275.071 157.147C275.315 157.208 275.456 157.155 275.547 157.082C275.656 156.996 275.765 156.825 275.82 156.549C275.931 155.993 275.783 155.198 275.3 154.554C275.27 154.513 275.148 154.418 274.814 154.342C274.498 154.271 274.078 154.235 273.569 154.232C272.554 154.227 271.28 154.352 269.994 154.516C269.221 154.614 268.466 154.723 267.765 154.824C267.29 154.893 266.84 154.958 266.426 155.014C265.924 155.081 265.477 155.135 265.13 155.158C264.956 155.17 264.796 155.176 264.66 155.17C264.546 155.166 264.37 155.152 264.219 155.077C264.126 155.03 264.009 154.953 263.924 154.822C263.83 154.677 263.806 154.51 263.837 154.356C263.865 154.218 263.934 154.11 263.991 154.038C264.05 153.962 264.12 153.896 264.188 153.84C264.446 153.626 264.862 153.403 265.307 153.193C266.058 152.837 267.035 152.45 267.873 152.117C268.051 152.046 268.223 151.978 268.384 151.914C269.429 151.496 270.366 151.501 271.209 151.6C271.5 151.634 271.792 151.682 272.066 151.726C272.178 151.744 272.288 151.762 272.393 151.778C272.768 151.836 273.113 151.878 273.449 151.878C273.995 151.878 274.314 151.621 274.521 151.276C274.744 150.905 274.825 150.438 274.825 150.126C274.825 150.131 274.825 150.134 274.825 150.134C274.822 150.135 274.795 150.028 274.573 149.834C274.344 149.633 273.973 149.401 273.444 149.18C272.39 148.741 270.769 148.374 268.57 148.374C266.436 148.374 264.083 149.269 262.022 150.206C261.511 150.438 261.022 150.671 260.562 150.891L260.462 150.939C260.041 151.14 259.642 151.331 259.278 151.496C258.887 151.674 258.524 151.828 258.206 151.939C257.898 152.045 257.586 152.127 257.312 152.127C257.19 152.127 257.051 152.115 256.921 152.067C256.784 152.016 256.613 151.907 256.531 151.695C256.453 151.496 256.498 151.311 256.543 151.2C256.589 151.085 256.658 150.984 256.724 150.902C256.978 150.588 257.461 150.224 257.982 149.892C258.518 149.551 259.152 149.209 259.754 148.951C260.336 148.702 260.956 148.501 261.44 148.501C262.21 148.501 262.605 148.123 262.765 147.871ZM273.901 162.849C274.171 162.899 274.425 162.959 274.658 163.031C275.312 163.234 275.96 163.584 276.175 164.228C276.594 165.488 276.393 166.668 275.947 167.449C275.727 167.833 275.424 168.162 275.061 168.325C274.875 168.409 274.661 168.454 274.438 168.421C274.211 168.389 274.009 168.281 273.846 168.117C273.655 167.927 273.488 167.717 273.342 167.534C273.325 167.513 273.309 167.492 273.293 167.472C273.127 167.266 272.988 167.099 272.838 166.967C272.694 166.842 272.552 166.759 272.389 166.719C272.226 166.678 272.006 166.67 271.694 166.748C271.577 166.777 271.422 166.847 271.204 166.978C270.989 167.107 270.743 167.276 270.444 167.483L270.396 167.516C269.812 167.921 269.066 168.438 268.103 168.955C266.115 170.022 263.227 171.075 258.835 171.266C252.067 171.56 245.181 175.328 242.592 177.177C242.478 177.259 242.335 177.288 242.198 177.259C242.061 177.23 241.942 177.145 241.871 177.025C240.616 174.899 238.824 171.667 237.532 168.878C236.888 167.488 236.358 166.185 236.084 165.178C235.949 164.679 235.866 164.214 235.881 163.832C235.896 163.469 236.013 162.999 236.476 162.801L236.491 162.794C237.598 162.364 239.338 161.586 240.945 160.66C241.748 160.197 242.508 159.702 243.136 159.2C243.771 158.693 244.24 158.203 244.494 157.758C245.254 156.429 246.96 153.68 249.145 151.115C251.309 148.575 254.029 146.11 256.832 145.509C261.205 144.572 263.299 146.403 263.785 147.699C263.825 147.806 263.827 147.924 263.791 148.032C263.747 148.163 263.673 148.315 263.566 148.47C265.17 147.857 266.908 147.374 268.57 147.374C270.874 147.374 272.631 147.758 273.829 148.257C274.426 148.506 274.899 148.79 275.232 149.082C275.539 149.35 275.825 149.713 275.825 150.126C275.825 150.565 275.719 151.224 275.378 151.791C275.023 152.384 274.404 152.878 273.449 152.878C273.034 152.878 272.628 152.826 272.241 152.767C272.118 152.748 271.999 152.728 271.882 152.709C271.617 152.666 271.36 152.625 271.092 152.593C270.34 152.505 269.588 152.509 268.756 152.842C268.587 152.91 268.411 152.98 268.229 153.052C267.393 153.383 266.459 153.754 265.742 154.093C265.912 154.073 266.096 154.049 266.293 154.023C266.684 153.97 267.127 153.906 267.6 153.838C268.313 153.735 269.095 153.622 269.867 153.524C271.161 153.359 272.49 153.226 273.575 153.232C274.115 153.235 274.618 153.273 275.034 153.367C275.431 153.457 275.849 153.62 276.1 153.954C276.743 154.812 276.971 155.893 276.8 156.745C276.715 157.172 276.518 157.587 276.17 157.865C275.804 158.155 275.334 158.243 274.828 158.117C274.751 158.097 274.588 158.084 274.32 158.095C274.062 158.106 273.743 158.138 273.373 158.188C272.803 158.266 272.13 158.385 271.408 158.53C271.414 158.53 271.42 158.53 271.426 158.53C272.505 158.497 273.519 158.503 274.309 158.577C274.703 158.615 275.06 158.67 275.349 158.754C275.606 158.828 275.934 158.958 276.116 159.231C276.52 159.837 276.792 160.54 276.66 161.201C276.515 161.922 275.939 162.403 275.071 162.62C274.833 162.679 274.425 162.758 273.901 162.849ZM261.034 149.561C260.79 149.621 260.488 149.725 260.148 149.871C259.6 150.105 259.014 150.421 258.519 150.736C258.513 150.74 258.507 150.743 258.501 150.747C258.616 150.697 258.737 150.644 258.864 150.586C259.219 150.425 259.609 150.238 260.034 150.035L260.131 149.989C260.419 149.851 260.721 149.707 261.034 149.561ZM236.914 163.685C236.914 163.686 236.913 163.689 236.909 163.693C236.912 163.687 236.914 163.685 236.914 163.685Z" fill="black"/>
<path d="M240.132 66.5707L246.136 83.4576C243.735 83.4576 225.872 87.9608 217.241 90.2124L219.492 60.5664L240.132 66.5707Z" fill="white" stroke="black"/>
<path d="M239.135 118.006C239.135 96.9669 219.492 94.3523 211.236 96.9662C188.72 104.097 167.546 152.579 164.328 161.912C160.575 172.794 142.938 221.555 162.076 220.429C177.387 219.528 239.256 187.781 251.39 178.399L243.884 159.261L201.479 171.644C196.601 170.519 239.135 137.667 239.135 118.006Z" fill="#FC92C3" stroke="black"/>
<path d="M222.042 115.038C222.442 113.038 225.542 115.538 227.042 117.038C225.042 115.038 224.042 111.539 225.042 111.037C225.842 110.636 227.375 113.537 228.042 115.038C227.875 113.538 227.842 110.637 229.042 111.037C230.242 111.437 229.875 114.538 229.542 116.038C230.542 115.038 232.742 113.338 233.542 114.538C234.342 115.738 231.542 117.038 230.042 117.538C231.375 117.371 233.942 117.438 233.542 119.038C233.142 120.638 230.709 119.705 229.542 119.038C230.709 119.871 232.742 121.638 231.542 122.038C230.342 122.438 228.709 120.538 228.042 119.538C228.375 120.871 228.642 123.438 227.042 123.038C225.442 122.638 226.042 120.205 226.542 119.038C225.542 120.205 223.342 122.238 222.542 121.038C221.742 119.838 224.209 118.538 225.542 118.038C224.209 117.871 221.642 117.038 222.042 115.038Z" fill="#FFFEFE"/>
<path d="M182.042 144.038C182.442 142.038 185.542 144.538 187.042 146.038C185.042 144.038 184.042 140.539 185.042 140.037C185.842 139.636 187.375 142.537 188.042 144.038C187.875 142.538 187.842 139.637 189.042 140.037C190.242 140.437 189.875 143.538 189.542 145.038C190.542 144.038 192.742 142.338 193.542 143.538C194.342 144.738 191.542 146.038 190.042 146.538C191.375 146.371 193.942 146.438 193.542 148.038C193.142 149.638 190.709 148.705 189.542 148.038C190.709 148.871 192.742 150.638 191.542 151.038C190.342 151.438 188.709 149.538 188.042 148.538C188.375 149.871 188.642 152.438 187.042 152.038C185.442 151.638 186.042 149.205 186.542 148.038C185.542 149.205 183.342 151.238 182.542 150.038C181.742 148.838 184.209 147.538 185.542 147.038C184.209 146.871 181.642 146.038 182.042 144.038Z" fill="#FFFEFE"/>
<path d="M182.042 180.038C182.442 178.038 185.542 180.538 187.042 182.038C185.042 180.038 184.042 176.539 185.042 176.037C185.842 175.636 187.375 178.537 188.042 180.038C187.875 178.538 187.842 175.637 189.042 176.037C190.242 176.437 189.875 179.538 189.542 181.038C190.542 180.038 192.742 178.338 193.542 179.538C194.342 180.738 191.542 182.038 190.042 182.538C191.375 182.371 193.942 182.438 193.542 184.038C193.142 185.638 190.709 184.705 189.542 184.038C190.709 184.871 192.742 186.638 191.542 187.038C190.342 187.438 188.709 185.538 188.042 184.538C188.375 185.871 188.642 188.438 187.042 188.038C185.442 187.638 186.042 185.205 186.542 184.038C185.542 185.205 183.342 187.238 182.542 186.038C181.742 184.838 184.209 183.538 185.542 183.038C184.209 182.871 181.642 182.038 182.042 180.038Z" fill="#FFFEFE"/>
<path d="M165.042 168.038C165.442 166.038 168.542 168.538 170.042 170.038C168.042 168.038 167.042 164.539 168.042 164.037C168.842 163.636 170.375 166.537 171.042 168.038C170.875 166.538 170.842 163.637 172.042 164.037C173.242 164.437 172.875 167.538 172.542 169.038C173.542 168.038 175.742 166.338 176.542 167.538C177.342 168.738 174.542 170.038 173.042 170.538C174.375 170.371 176.942 170.438 176.542 172.038C176.142 173.638 173.709 172.705 172.542 172.038C173.709 172.871 175.742 174.638 174.542 175.038C173.342 175.438 171.709 173.538 171.042 172.538C171.375 173.871 171.642 176.438 170.042 176.038C168.442 175.638 169.042 173.205 169.542 172.038C168.542 173.205 166.342 175.238 165.542 174.038C164.742 172.838 167.209 171.538 168.542 171.038C167.209 170.871 164.642 170.038 165.042 168.038Z" fill="#FFFEFE"/>
<path d="M159.042 204.038C159.442 202.038 162.542 204.538 164.042 206.038C162.042 204.038 161.042 200.539 162.042 200.037C162.842 199.636 164.375 202.537 165.042 204.038C164.875 202.538 164.842 199.637 166.042 200.037C167.242 200.437 166.875 203.538 166.542 205.038C167.542 204.038 169.742 202.338 170.542 203.538C171.342 204.738 168.542 206.038 167.042 206.538C168.375 206.371 170.942 206.438 170.542 208.038C170.142 209.638 167.709 208.705 166.542 208.038C167.709 208.871 169.742 210.638 168.542 211.038C167.342 211.438 165.709 209.538 165.042 208.538C165.375 209.871 165.642 212.438 164.042 212.038C162.442 211.638 163.042 209.205 163.542 208.038C162.542 209.205 160.342 211.238 159.542 210.038C158.742 208.838 161.209 207.538 162.542 207.038C161.209 206.871 158.642 206.038 159.042 204.038Z" fill="#FFFEFE"/>
<path d="M194.025 196.34C194.265 195.181 196.122 196.63 197.021 197.499C195.822 196.34 195.223 194.312 195.823 194.022C196.302 193.789 197.221 195.47 197.62 196.34C197.52 195.471 197.5 193.79 198.219 194.022C198.938 194.254 198.719 196.05 198.519 196.919C199.118 196.34 200.436 195.355 200.916 196.05C201.395 196.746 199.717 197.499 198.818 197.789C199.617 197.692 201.155 197.731 200.916 198.658C200.676 199.585 199.218 199.044 198.519 198.658C199.218 199.141 200.436 200.164 199.717 200.396C198.998 200.628 198.02 199.527 197.62 198.948C197.82 199.72 197.98 201.208 197.021 200.976C196.062 200.744 196.422 199.334 196.721 198.658C196.122 199.334 194.804 200.512 194.325 199.817C193.845 199.121 195.323 198.368 196.122 198.078C195.323 197.982 193.785 197.499 194.025 196.34Z" fill="#FFFEFE"/>
<path d="M205.039 176.677C205.416 174.856 208.335 177.133 209.747 178.498C207.864 176.677 206.923 173.491 207.864 173.034C208.617 172.669 210.061 175.311 210.689 176.677C210.532 175.311 210.5 172.67 211.63 173.034C212.76 173.398 212.415 176.222 212.101 177.588C213.043 176.677 215.114 175.129 215.867 176.222C216.621 177.315 213.984 178.498 212.572 178.954C213.827 178.802 216.244 178.863 215.867 180.319C215.491 181.776 213.2 180.927 212.101 180.319C213.2 181.078 215.114 182.687 213.984 183.051C212.854 183.416 211.316 181.685 210.689 180.775C211.003 181.989 211.254 184.326 209.747 183.962C208.241 183.598 208.806 181.382 209.276 180.319C208.335 181.382 206.264 183.233 205.51 182.141C204.757 181.048 207.079 179.864 208.335 179.409C207.079 179.257 204.663 178.498 205.039 176.677Z" fill="#FFFEFE"/>
<path d="M235.032 176.009C235.34 174.519 237.728 176.381 238.884 177.499C237.343 176.009 236.573 173.402 237.343 173.028C237.96 172.729 239.141 174.891 239.654 176.009C239.526 174.891 239.5 172.73 240.425 173.028C241.349 173.326 241.067 175.636 240.81 176.754C241.58 176.009 243.275 174.742 243.891 175.636C244.508 176.53 242.351 177.499 241.195 177.871C242.222 177.747 244.2 177.797 243.891 178.989C243.583 180.181 241.709 179.485 240.81 178.989C241.709 179.61 243.275 180.926 242.351 181.224C241.426 181.522 240.168 180.106 239.654 179.361C239.911 180.355 240.117 182.267 238.884 181.969C237.651 181.671 238.114 179.858 238.499 178.989C237.729 179.858 236.034 181.373 235.418 180.479C234.801 179.585 236.701 178.616 237.728 178.244C236.701 178.12 234.724 177.499 235.032 176.009Z" fill="#FFFEFE"/>
<path d="M209.032 139.009C209.34 137.519 211.728 139.381 212.884 140.499C211.343 139.009 210.573 136.402 211.343 136.028C211.96 135.729 213.141 137.891 213.654 139.009C213.526 137.891 213.5 135.73 214.425 136.028C215.349 136.326 215.067 138.636 214.81 139.754C215.58 139.009 217.275 137.742 217.891 138.636C218.508 139.53 216.351 140.499 215.195 140.871C216.222 140.747 218.2 140.797 217.891 141.989C217.583 143.181 215.709 142.485 214.81 141.989C215.709 142.61 217.275 143.926 216.351 144.224C215.426 144.522 214.168 143.106 213.654 142.361C213.911 143.355 214.117 145.267 212.884 144.969C211.651 144.671 212.114 142.858 212.499 141.989C211.729 142.858 210.034 144.373 209.418 143.479C208.801 142.585 210.701 141.616 211.728 141.244C210.701 141.12 208.724 140.499 209.032 139.009Z" fill="#FFFEFE"/>
<path d="M253.623 28.0759C249.447 24.9773 246.083 13.1698 244.923 7.65332C220.143 11.3153 218.357 44.8601 220.561 61.1747C227.406 63.9916 242.486 68.9212 248.055 66.1043C255.015 62.5831 253.623 51.3155 253.623 44.9774C253.623 38.6394 255.015 40.3999 258.843 37.9351C262.672 35.4703 258.843 31.9492 253.623 28.0759Z" fill="white"/>
<path fill-rule="evenodd" clip-rule="evenodd" d="M246.042 6.15234L244.744 6.3432C231.54 8.28516 224.563 18.1902 221.196 29.3467C217.835 40.4844 217.951 53.1683 219.076 61.457L219.186 62.2641L219.935 62.5711C223.426 64.0007 229.008 65.9641 234.447 67.2175C237.166 67.844 239.888 68.3026 242.317 68.418C244.705 68.5315 246.995 68.3248 248.72 67.4565C252.861 65.3717 254.361 61.0543 254.903 56.8703C255.303 53.7858 255.213 50.449 255.14 47.7049C255.114 46.7399 255.09 45.8483 255.09 45.0666C255.09 43.5057 255.179 42.5712 255.326 41.9825C255.458 41.455 255.612 41.2983 255.738 41.1979C255.963 41.0192 256.272 40.8902 257.023 40.5765L257.03 40.5736C257.728 40.2824 258.624 39.8935 259.688 39.2117C260.86 38.4613 261.693 37.4637 261.865 36.1749C262.03 34.9396 261.534 33.7903 260.879 32.8258C259.586 30.9225 257.11 28.9405 254.518 27.0267C253.704 26.4257 252.823 25.3087 251.932 23.7403C251.056 22.1975 250.233 20.3322 249.49 18.3578C248.005 14.4092 246.886 10.1486 246.315 7.44392L246.042 6.15234ZM243.872 9.35033C244.516 12.1153 245.552 15.8423 246.873 19.3556C247.646 21.4106 248.529 23.4234 249.503 25.139C250.463 26.8288 251.579 28.3501 252.863 29.2986C255.518 31.2587 257.589 32.9744 258.57 34.4167C259.051 35.125 259.124 35.5605 259.092 35.7998C259.067 35.9857 258.939 36.3527 258.186 36.8349C257.326 37.3857 256.605 37.7011 255.958 37.9712C255.901 37.9953 255.841 38.0198 255.781 38.0449C255.222 38.2752 254.55 38.5529 254.004 38.9866C253.3 39.5465 252.863 40.2923 252.613 41.2945C252.377 42.2355 252.292 43.4581 252.292 45.0666C252.292 45.987 252.318 46.9714 252.345 47.9969C252.418 50.6869 252.497 53.6602 252.129 56.5059C251.621 60.4217 250.323 63.4997 247.469 64.9366C246.395 65.4769 244.692 65.7105 242.449 65.6038C240.247 65.4992 237.702 65.0773 235.072 64.4712C230.188 63.3458 225.151 61.6177 221.744 60.2654C220.756 52.2388 220.771 40.4462 223.873 30.1658C226.958 19.9452 232.982 11.498 243.872 9.35033Z" fill="#08021C"/>
<path d="M234.128 37.675C243.735 31.6708 246.136 13.9082 246.136 5.77742C239.381 -1.35264 218.367 -2.47844 209.36 5.77742C200.354 14.0333 198.853 25.2913 193.599 28.6687C188.345 32.0461 180.465 37.675 179.714 52.3104C178.964 66.9458 170.578 71.5342 161.571 76.4127C152.565 81.2911 128.303 86.8349 135.808 122.11C143.313 157.385 183.092 149.129 186.844 137.871C190.597 126.613 207.109 120.609 218.367 105.598C229.625 90.5876 222.119 81.9565 220.618 67.3211C219.117 52.6857 222.119 45.1804 234.128 37.675Z" fill="black"/>
<rect x="441.405" y="5.94336" width="303.889" height="238.524" rx="7.5" fill="#FFFAEA" stroke="black" stroke-linejoin="round"/>
<rect x="441.405" y="5.94336" width="303.889" height="62.6825" rx="7.5" fill="black" stroke="black" stroke-linejoin="round"/>
<circle cx="666.079" cy="31.7615" r="5.98413" fill="#D9D9D9"/>
<circle cx="683.571" cy="31.7615" r="5.98413" fill="#D9D9D9"/>
<circle cx="701.063" cy="31.7615" r="5.98413" fill="#D9D9D9"/>
<rect x="509.611" y="110.977" width="161.952" height="98.4286" fill="#FFFAEA" stroke="black"/>
<path d="M684.492 110.476H497.143V96.666H684.492V110.476Z" fill="#FAE7AD" stroke="black" stroke-linecap="round"/>
<path d="M577.238 161.642V209.515H606.238V161.642C595.558 149.858 581.381 155.198 577.238 161.642Z" fill="#FAE7AD" stroke="black" stroke-linecap="round"/>
<mask id="path-63-outside-1_1191_80" maskUnits="userSpaceOnUse" x="669.301" y="174.762" width="173" height="89" fill="black">
<rect fill="white" x="669.301" y="174.762" width="173" height="89"/>
<path d="M840.539 262.381C840.539 241.204 832.691 220.778 818.511 205.05C804.331 189.321 784.825 179.406 763.761 177.219C742.697 175.033 721.571 180.73 704.462 193.21C687.353 205.69 675.477 224.068 671.127 244.794L754.92 262.381H840.539Z"/>
</mask>
<path d="M840.539 262.381C840.539 241.204 832.691 220.778 818.511 205.05C804.331 189.321 784.825 179.406 763.761 177.219C742.697 175.033 721.571 180.73 704.462 193.21C687.353 205.69 675.477 224.068 671.127 244.794L754.92 262.381H840.539Z" fill="#ECEAFF"/>
<path d="M840.539 262.381C840.539 241.204 832.691 220.778 818.511 205.05C804.331 189.321 784.825 179.406 763.761 177.219C742.697 175.033 721.571 180.73 704.462 193.21C687.353 205.69 675.477 224.068 671.127 244.794L754.92 262.381H840.539Z" stroke="black" stroke-width="2" stroke-linejoin="round" mask="url(#path-63-outside-1_1191_80)"/>
<mask id="path-64-outside-2_1191_80" maskUnits="userSpaceOnUse" x="759.746" y="269.285" width="89" height="76" fill="black">
<rect fill="white" x="759.746" y="269.285" width="89" height="76"/>
<path d="M846.984 270.666C846.984 285.234 843.267 299.561 836.184 312.292C829.102 325.022 818.888 335.735 806.51 343.416L761.365 270.666H846.984Z"/>
</mask>
<path d="M846.984 270.666C846.984 285.234 843.267 299.561 836.184 312.292C829.102 325.022 818.888 335.735 806.51 343.416L761.365 270.666H846.984Z" fill="#A89EFE"/>
<path d="M846.984 270.666C846.984 285.234 843.267 299.561 836.184 312.292C829.102 325.022 818.888 335.735 806.51 343.416L761.365 270.666H846.984Z" stroke="black" stroke-width="2" stroke-linejoin="round" mask="url(#path-64-outside-2_1191_80)"/>
<mask id="path-65-outside-3_1191_80" maskUnits="userSpaceOnUse" x="665.54" y="248.285" width="132" height="109" fill="black">
<rect fill="white" x="665.54" y="248.285" width="132" height="109"/>
<path d="M796.228 344.073C781.709 352.789 764.932 357.004 748.018 356.185C731.104 355.366 714.813 349.55 701.204 339.472C687.596 329.394 677.281 315.507 671.565 299.568C665.849 283.628 664.988 266.351 669.091 249.921L752.159 270.666L796.228 344.073Z"/>
</mask>
<path d="M796.228 344.073C781.709 352.789 764.932 357.004 748.018 356.185C731.104 355.366 714.813 349.55 701.204 339.472C687.596 329.394 677.281 315.507 671.565 299.568C665.849 283.628 664.988 266.351 669.091 249.921L752.159 270.666L796.228 344.073Z" fill="#ECEAFF"/>
<path d="M796.228 344.073C781.709 352.789 764.932 357.004 748.018 356.185C731.104 355.366 714.813 349.55 701.204 339.472C687.596 329.394 677.281 315.507 671.565 299.568C665.849 283.628 664.988 266.351 669.091 249.921L752.159 270.666L796.228 344.073Z" stroke="black" stroke-width="2" stroke-linejoin="round" mask="url(#path-65-outside-3_1191_80)"/>
<path d="M90.2222 291.38C90.2222 301.295 98.2598 309.332 108.175 309.332C118.089 309.332 126.127 301.295 126.127 291.38C126.127 281.465 118.089 273.428 108.175 273.428C98.2598 273.428 90.2222 281.465 90.2222 291.38Z" fill="#08021C"/>
<path d="M32.2223 290.461C32.2223 295.291 36.5502 299.207 41.889 299.207C47.2278 299.207 51.5557 295.291 51.5557 290.461C51.5557 285.631 47.2278 281.715 41.889 281.715C36.5502 281.715 32.2223 285.631 32.2223 290.461Z" fill="#08021C"/>
<path d="M81.9364 344.778C81.9364 351.642 87.913 357.207 95.2856 357.207C102.658 357.207 108.635 351.642 108.635 344.778C108.635 337.914 102.658 332.35 95.2856 332.35C87.913 332.35 81.9364 337.914 81.9364 344.778Z" fill="#08021C"/>
<path d="M-9.15527e-05 376.08C-9.15527e-05 393.113 14.4263 406.921 32.2221 406.921C50.018 406.921 64.4443 393.113 64.4443 376.08C64.4443 359.046 50.018 345.238 32.2221 345.238C14.4263 345.238 -9.15527e-05 359.046 -9.15527e-05 376.08Z" fill="#08021C"/>
<path d="M891.799 73.5606C890.15 69.1643 888.013 67.9559 887.151 67.9012C884.604 68.3587 885.323 72.9965 884.273 76.7975C880.188 93.873 869.512 101.654 866.167 103.092C862.822 104.531 857.94 108.864 866.614 110.239C875.287 111.615 883.318 123.317 886.701 129.361C890.085 135.404 888.723 141.096 891.738 141.235C894.752 141.375 893.78 139.559 895.53 133.222C897.281 126.885 907.355 109.469 912.703 105.733C916.981 102.744 913.358 100.186 911.011 99.2811C900.471 95.5178 893.86 79.056 891.799 73.5606Z" fill="black"/>
<path d="M831.376 36.2901C830.432 33.7728 829.209 33.0809 828.715 33.0496C827.256 33.3115 827.668 35.967 827.067 38.1435C824.728 47.9206 818.615 52.3758 816.699 53.1995C814.784 54.0233 811.989 56.5043 816.955 57.2918C821.922 58.0792 826.52 64.7801 828.457 68.2405C830.395 71.701 829.615 74.9596 831.341 75.0395C833.067 75.1194 832.51 74.0799 833.513 70.4514C834.515 66.8229 840.283 56.8509 843.345 54.7116C845.795 53.0002 843.72 51.5356 842.377 51.0173C836.342 48.8625 832.556 39.4367 831.376 36.2901Z" fill="black"/>
<path d="M803.872 92.4483C802.928 89.931 801.705 89.2391 801.211 89.2078C799.752 89.4697 800.164 92.1253 799.563 94.3017C797.224 104.079 791.111 108.534 789.196 109.358C787.28 110.181 784.485 112.663 789.452 113.45C794.418 114.237 799.016 120.938 800.954 124.399C802.891 127.859 802.111 131.118 803.837 131.198C805.563 131.278 805.006 130.238 806.009 126.61C807.011 122.981 812.779 113.009 815.842 110.87C818.291 109.158 816.217 107.694 814.873 107.175C808.838 105.021 805.052 95.5949 803.872 92.4483Z" fill="black"/>
<rect x="361.389" y="282.215" width="195.095" height="125.127" rx="9.5" fill="#E3F9FF" stroke="black"/>
<rect x="419" y="333" width="10" height="60" fill="#9DD1DF"/>
<rect x="434" y="314" width="9" height="79" fill="#9DD1DF"/>
<rect x="449" y="355" width="9" height="38" fill="#9DD1DF"/>
<rect x="464" y="326" width="9" height="67" fill="#9DD1DF"/>
<rect x="481" y="346" width="10" height="47" fill="#9DD1DF"/>
<rect x="504" y="367" width="9" height="26" fill="#9DD1DF"/>
<path d="M658.652 401.355C659.278 396.741 663.526 393.508 668.14 394.134L716.181 400.651C720.796 401.277 724.029 405.526 723.403 410.14L716.885 458.181C716.259 462.795 712.011 466.029 707.396 465.403L659.355 458.885C654.741 458.259 651.508 454.011 652.134 449.396L658.652 401.355Z" fill="#FFDAEB"/>
<path fill-rule="evenodd" clip-rule="evenodd" d="M741.456 422.456L693.415 415.938C689.57 415.416 686.03 418.111 685.508 421.956L678.99 469.997C678.468 473.843 681.163 477.383 685.008 477.904L733.049 484.422C736.894 484.944 740.435 482.25 740.956 478.404L747.474 430.363C747.996 426.518 745.302 422.978 741.456 422.456ZM693.604 414.546C688.99 413.92 684.742 417.153 684.115 421.767L677.598 469.808C676.972 474.423 680.205 478.671 684.819 479.297L732.86 485.815C737.475 486.441 741.723 483.208 742.349 478.593L748.867 430.552C749.493 425.938 746.26 421.69 741.645 421.064L693.604 414.546Z" fill="black"/>
<path d="M500.033 549.729C495.497 548.675 492.675 544.143 493.729 539.608L504.706 492.385C505.76 487.85 510.292 485.027 514.827 486.082L562.05 497.058C566.586 498.113 569.408 502.644 568.353 507.18L557.377 554.402C556.323 558.938 551.791 561.76 547.255 560.706L500.033 549.729Z" fill="#FFDB68"/>
<path fill-rule="evenodd" clip-rule="evenodd" d="M528.776 469.257L517.8 516.48C516.921 520.259 519.273 524.036 523.053 524.914L570.275 535.891C574.055 536.769 577.831 534.418 578.71 530.638L589.686 483.415C590.565 479.636 588.213 475.859 584.433 474.981L537.211 464.004C533.431 463.126 529.655 465.477 528.776 469.257ZM516.431 516.161C515.377 520.697 518.199 525.229 522.735 526.283L569.957 537.26C574.493 538.314 579.024 535.492 580.079 530.956L591.055 483.734C592.109 479.198 589.287 474.666 584.752 473.612L537.529 462.635C532.993 461.581 528.462 464.403 527.408 468.939L516.431 516.161Z" fill="black"/>
<path d="M656.224 430.661C665.643 425.859 665.628 416.886 664.442 413C667.819 421.574 677.686 422.08 682.197 421.261C672.972 426.427 672.556 435.873 673.5 439.95C670.176 429.309 660.598 429.324 656.224 430.661Z" fill="#08021C" stroke="#08021C"/>
</svg>
